<svg width="60" height="60" viewBox="0 0 60 60" fill="none" xmlns="http://www.w3.org/2000/svg">
<g clip-path="url(#clip0_22_691)">
<rect x="15" y="10.5" width="33" height="40.5" fill="white"/>
<path d="M37.598 33.4902C36.5588 32.5491 35.1275 32.098 33.2647 32.098H22.4314V43.0392H33.2647C35.1274 43.0392 36.5784 42.5589 37.598 41.5882C38.6274 40.6274 39.147 39.2549 39.147 37.4902C39.147 35.7549 38.6373 34.4313 37.598 33.4902Z" fill="#5E3B7F"/>
<path d="M36.1079 26.4411C37.0883 25.598 37.5785 24.402 37.5785 22.8333C37.5785 21.0686 37.1373 19.8234 36.255 19.1078C35.3726 18.3921 34.0981 18.0294 32.4314 18.0294H22.4314V27.6961H32.4314C33.9021 27.6961 35.1275 27.2843 36.1079 26.4411Z" fill="#5E3B7F"/>
<path d="M50 0H9.99996C4.5 0 0 4.5 0 9.99996V49.9999C0 55.5 4.5 60 9.99996 60H49.9999C55.5 60 60 55.5 60 50V9.99996C60 4.5 55.5 0 50 0ZM44.5392 42.1275C44.049 43.3235 43.2844 44.353 42.2353 45.2157C41.1864 46.0785 39.853 46.7647 38.2158 47.2746C36.5786 47.7844 34.6373 48.0393 32.3824 48.0393H16.3039V13.0392H33.3137C36.4509 13.0392 38.9706 13.7549 40.8627 15.1961C42.7548 16.6372 43.7058 18.8039 43.7058 21.7157C43.7058 23.4804 43.2744 24.9901 42.4117 26.2451C41.5489 27.5 40.3137 28.4804 38.7057 29.1667V29.2648C40.8626 29.7255 42.4999 30.7452 43.6077 32.3236C44.7155 33.9118 45.2743 35.8922 45.2743 38.2843C45.2745 39.6568 45.0294 40.9412 44.5392 42.1275Z" fill="#5E3B7F"/>
</g>
<defs>
<clipPath id="clip0_22_691">
<rect width="60" height="60" fill="white"/>
</clipPath>
</defs>
</svg>
