<svg width="24" height="25" viewBox="0 0 24 25" fill="none" xmlns="http://www.w3.org/2000/svg">
<path d="M18.6131 0.561768H5.38691C2.4118 0.561768 0 2.97357 0 5.94867V19.1749C0 22.15 2.4118 24.5618 5.38691 24.5618H18.6131C21.5882 24.5618 24 22.15 24 19.1749V5.94867C24 2.97357 21.5882 0.561768 18.6131 0.561768Z" fill="url(#paint0_linear_16_390)"/>
<path d="M8.31309 4.71826H15.7949C15.9612 4.80139 16.2106 4.80139 16.3768 4.88452C17.1064 5.00276 17.7886 5.32214 18.3466 5.80676C18.9047 6.29139 19.3165 6.92204 19.5358 7.62786C19.6586 8.03459 19.7421 8.45216 19.7852 8.87483V16.1904C19.6664 17.1175 19.324 18.0019 18.7876 18.7674C18.3275 19.3006 17.7506 19.7204 17.1018 19.9944C16.453 20.2683 15.7497 20.389 15.0467 20.3469H8.81188C7.6992 20.4009 6.6052 20.0461 5.73602 19.3494C5.20747 18.8927 4.79037 18.3212 4.51661 17.6786C4.24284 17.036 4.11968 16.3392 4.15652 15.6417V9.82252C4.14279 9.40514 4.17064 8.98742 4.23966 8.57555C4.3236 7.72328 4.67403 6.91915 5.24113 6.27742C5.80823 5.6357 6.56317 5.18904 7.39864 5.00091L8.31309 4.71826ZM5.73602 12.6157V15.8579C5.70057 16.2707 5.75581 16.6863 5.89785 17.0756C6.03989 17.4649 6.26531 17.8184 6.55832 18.1114C6.85133 18.4044 7.20485 18.6298 7.59412 18.7719C7.9834 18.9139 8.39902 18.9692 8.81188 18.9337C10.9733 19.0168 13.1347 19.0168 15.2961 18.9337C17.2081 18.9337 18.2888 17.7699 18.372 15.8579C18.4551 13.6964 18.4551 11.535 18.372 9.37361C18.3935 8.96401 18.3287 8.55446 18.1817 8.17152C18.0348 7.78858 17.809 7.44082 17.5189 7.15079C17.2289 6.86076 16.8811 6.63494 16.4982 6.48798C16.1153 6.34103 15.7057 6.27622 15.2961 6.29776C13.1347 6.21462 10.9733 6.21462 8.81188 6.29776C8.39902 6.26231 7.9834 6.31754 7.59412 6.45959C7.20485 6.60163 6.85133 6.82705 6.55832 7.12006C6.26531 7.41307 6.03989 7.76659 5.89785 8.15586C5.75581 8.54513 5.70057 8.96075 5.73602 9.37361V12.6157Z" fill="white"/>
<path d="M8.01343 12.6486C8.01562 11.569 8.44549 10.5341 9.20893 9.7707C9.97238 9.00726 11.0072 8.57739 12.0869 8.5752C13.1605 8.59646 14.1843 9.03245 14.9437 9.79181C15.703 10.5512 16.139 11.5749 16.1603 12.6486C16.1581 13.7283 15.7282 14.7631 14.9648 15.5266C14.2013 16.29 13.1665 16.7199 12.0869 16.7221C11.0132 16.7008 9.9894 16.2648 9.23004 15.5054C8.47069 14.7461 8.03469 13.7223 8.01343 12.6486ZM12.0869 10.0716C11.5819 10.0633 11.0861 10.2061 10.6628 10.4815C10.2395 10.7569 9.90813 11.1525 9.7111 11.6174C9.51406 12.0824 9.46035 12.5956 9.55685 13.0913C9.65336 13.5869 9.89568 14.0425 10.2528 14.3996C10.6098 14.7567 11.0654 14.999 11.5611 15.0955C12.0568 15.192 12.57 15.1383 13.0349 14.9413C13.4999 14.7442 13.8954 14.4128 14.1708 13.9896C14.4463 13.5663 14.589 13.0704 14.5808 12.5655C14.5808 11.9041 14.318 11.2697 13.8503 10.802C13.3826 10.3343 12.7483 10.0716 12.0869 10.0716Z" fill="white"/>
<path d="M15.2462 8.4093C15.2416 8.27705 15.2642 8.14525 15.3127 8.02212C15.3612 7.89899 15.4345 7.78715 15.528 7.69358C15.6216 7.6 15.7335 7.52669 15.8566 7.4782C15.9797 7.42971 16.1115 7.40708 16.2438 7.41173C16.5026 7.42923 16.7463 7.53996 16.9297 7.72338C17.1131 7.9068 17.2238 8.15049 17.2413 8.4093C17.2413 8.67388 17.1362 8.92761 16.9492 9.1147C16.7621 9.30178 16.5083 9.40688 16.2438 9.40688C15.9792 9.40688 15.7255 9.30178 15.5384 9.1147C15.3513 8.92761 15.2462 8.67388 15.2462 8.4093Z" fill="white"/>
<defs>
<linearGradient id="paint0_linear_16_390" x1="-1.52962" y1="25.8919" x2="26.735" y2="-1.95711" gradientUnits="userSpaceOnUse">
<stop stop-color="#FED576"/>
<stop offset="0.26" stop-color="#F47133"/>
<stop offset="0.61" stop-color="#BC3081"/>
<stop offset="1" stop-color="#4C63D2"/>
</linearGradient>
</defs>
</svg>
