<svg width="60" height="60" viewBox="0 0 60 60" fill="none" xmlns="http://www.w3.org/2000/svg">
<g clip-path="url(#clip0_22_663)">
<path d="M0 0H60V60H0V0Z" fill="#FFDF00"/>
<path d="M40.3048 46.8752C41.5134 48.8485 43.0858 50.2989 45.8668 50.2989C48.2029 50.2989 49.6953 49.1313 49.6953 47.518C49.6953 45.5846 48.162 44.8999 45.5906 43.7751L44.181 43.1703C40.1124 41.437 37.4096 39.2655 37.4096 34.675C37.4096 30.4464 40.6315 27.2274 45.6667 27.2274C49.2515 27.2274 51.8287 28.475 53.6858 31.7417L49.2953 34.5608C48.3286 32.8275 47.2858 32.1446 45.6667 32.1446C44.0153 32.1446 42.9686 33.1923 42.9686 34.5608C42.9686 36.2523 44.0163 36.937 46.4352 37.9846L47.8448 38.5884C52.6353 40.6427 55.34 42.7369 55.34 47.4455C55.34 52.5217 51.3523 55.3027 45.9971 55.3027C40.7609 55.3027 37.3781 52.8075 35.7228 49.537L40.3048 46.8752ZM20.3876 47.3637C21.2733 48.9352 22.0791 50.2638 24.0162 50.2638C25.8686 50.2638 27.0372 49.539 27.0372 46.721V27.5494H32.6753V46.797C32.6753 52.6351 29.2525 55.2923 24.2562 55.2923C19.7419 55.2923 17.1277 52.956 15.7981 50.1423L20.3876 47.3637Z" fill="black"/>
</g>
<defs>
<clipPath id="clip0_22_663">
<rect width="60" height="60" fill="white"/>
</clipPath>
</defs>
</svg>
