<svg width="60" height="60" viewBox="0 0 60 60" fill="none" xmlns="http://www.w3.org/2000/svg">
<g clip-path="url(#clip0_22_676)">
<path d="M4.35399 14.674C-0.958008 22.31 -0.296009 32.242 3.75999 40.356C3.85599 40.548 3.95799 40.738 4.05799 40.93C4.11999 41.052 4.17999 41.176 4.24599 41.298L4.36599 41.508C4.43399 41.636 4.50599 41.758 4.57799 41.886C4.70399 42.108 4.83199 42.328 4.96399 42.55C5.03799 42.672 5.10799 42.792 5.18399 42.914C5.32999 43.148 5.47799 43.382 5.63599 43.618C5.69799 43.716 5.76199 43.818 5.82599 43.914C6.03799 44.226 6.25399 44.542 6.47599 44.852C6.48399 44.86 6.48799 44.872 6.49599 44.876C6.53199 44.926 6.56999 44.978 6.60599 45.024C6.79999 45.294 6.99799 45.556 7.19999 45.814C7.27399 45.912 7.34799 46.006 7.42199 46.1C7.60199 46.326 7.78599 46.55 7.97199 46.776C8.03999 46.858 8.10799 46.944 8.17999 47.026C8.42999 47.318 8.68599 47.612 8.94599 47.898C8.94999 47.902 8.95799 47.91 8.96199 47.914C8.97399 47.93 8.98199 47.934 8.99199 47.95C9.24399 48.228 9.50599 48.496 9.76799 48.766C9.84999 48.852 9.93199 48.934 10.018 49.016C10.222 49.224 10.428 49.426 10.638 49.626C10.724 49.708 10.808 49.79 10.892 49.868C11.172 50.13 11.452 50.388 11.742 50.642C11.746 50.646 11.75 50.65 11.756 50.65C11.804 50.696 11.856 50.736 11.902 50.778C12.156 50.996 12.414 51.216 12.676 51.43C12.782 51.516 12.888 51.598 12.996 51.684C13.206 51.852 13.422 52.02 13.638 52.188C13.754 52.274 13.866 52.36 13.982 52.45C14.22 52.626 14.46 52.798 14.702 52.966C14.792 53.032 14.878 53.094 14.966 53.154C14.992 53.17 15.014 53.19 15.038 53.204C15.268 53.364 15.504 53.516 15.742 53.668C15.842 53.734 15.942 53.804 16.042 53.872C16.406 54.098 16.77 54.326 17.14 54.544C17.242 54.602 17.344 54.658 17.444 54.716C17.718 54.872 17.99 55.024 18.268 55.176C18.416 55.258 18.572 55.332 18.724 55.41C18.922 55.512 19.114 55.618 19.314 55.714C19.358 55.738 19.406 55.76 19.45 55.78C19.53 55.82 19.61 55.858 19.69 55.898C19.998 56.046 20.312 56.19 20.626 56.332C20.692 56.364 20.756 56.39 20.824 56.418C21.184 56.578 21.546 56.73 21.914 56.872C22.002 56.912 22.09 56.942 22.18 56.978C22.52 57.11 22.864 57.24 23.208 57.36C23.25 57.376 23.294 57.388 23.336 57.402C23.714 57.534 24.098 57.66 24.484 57.778C24.576 57.806 24.668 57.836 24.762 57.86C25.152 57.982 25.54 58.122 25.946 58.196C51.638 62.88 59.096 42.758 59.096 42.758C52.832 50.922 41.706 53.078 31.164 50.68C30.766 50.59 30.378 50.466 29.988 50.348C29.89 50.32 29.792 50.29 29.696 50.258C29.316 50.144 28.938 50.02 28.564 49.89C28.514 49.87 28.46 49.854 28.408 49.836C28.072 49.714 27.74 49.594 27.408 49.464C27.316 49.424 27.222 49.39 27.13 49.354C26.766 49.21 26.408 49.062 26.05 48.904C25.978 48.872 25.908 48.842 25.836 48.81C25.53 48.67 25.228 48.528 24.926 48.384C24.838 48.344 24.752 48.302 24.662 48.258C24.428 48.14 24.194 48.02 23.958 47.898C23.802 47.816 23.644 47.738 23.49 47.652C23.204 47.5 22.924 47.344 22.646 47.18C22.552 47.13 22.456 47.078 22.36 47.024C21.988 46.806 21.626 46.578 21.262 46.348C21.162 46.286 21.064 46.22 20.966 46.152C20.704 45.984 20.442 45.808 20.184 45.632C20.098 45.574 20.016 45.51 19.932 45.456C19.684 45.28 19.438 45.1 19.194 44.92C19.082 44.838 18.974 44.756 18.868 44.67C18.644 44.502 18.42 44.33 18.2 44.15C18.1 44.072 18 43.99 17.904 43.912C17.622 43.682 17.348 43.452 17.074 43.212C17.044 43.188 17.014 43.162 16.982 43.134C16.686 42.876 16.396 42.61 16.11 42.342C16.02 42.266 15.94 42.188 15.86 42.11C15.648 41.906 15.438 41.704 15.232 41.492C15.15 41.41 15.068 41.332 14.986 41.25C14.726 40.98 14.468 40.71 14.216 40.434C14.204 40.422 14.192 40.406 14.178 40.394C13.912 40.102 13.652 39.804 13.398 39.504C13.328 39.422 13.262 39.344 13.192 39.262C13.002 39.036 12.814 38.802 12.63 38.566C12.562 38.484 12.492 38.398 12.424 38.312C12.202 38.022 11.986 37.738 11.776 37.448C5.92399 29.466 3.81999 18.458 8.49999 9.41602" fill="white"/>
<path d="M20.844 8.24006C17.002 13.7721 17.212 21.1701 20.208 27.0181C20.71 27.9981 21.274 28.9481 21.908 29.8541C22.482 30.6781 23.122 31.6621 23.884 32.3201C24.162 32.6241 24.45 32.9261 24.748 33.2141C24.822 33.2921 24.898 33.3661 24.974 33.4401C25.262 33.7181 25.552 33.9901 25.854 34.2561C25.868 34.2681 25.878 34.2801 25.892 34.2881C25.894 34.2921 25.896 34.2921 25.9 34.2961C26.232 34.5881 26.578 34.8701 26.928 35.1481C27.006 35.2061 27.084 35.2701 27.162 35.3321C27.514 35.6021 27.87 35.8641 28.236 36.1181C28.248 36.1261 28.258 36.1341 28.268 36.1421C28.432 36.2561 28.596 36.3561 28.76 36.4661C28.838 36.5161 28.912 36.5721 28.992 36.6181C29.254 36.7861 29.52 36.9501 29.788 37.1061C29.828 37.1301 29.864 37.1481 29.902 37.1721C30.134 37.3041 30.37 37.4381 30.608 37.5661C30.69 37.6121 30.776 37.6521 30.858 37.6941C31.022 37.7801 31.186 37.8661 31.352 37.9521C31.378 37.9641 31.4 37.9761 31.426 37.9841C31.764 38.1521 32.106 38.3121 32.456 38.4641C32.53 38.4961 32.606 38.5261 32.682 38.5581C32.96 38.6761 33.242 38.7921 33.526 38.8981C33.646 38.9441 33.766 38.9881 33.886 39.0301C34.144 39.1281 34.402 39.2141 34.662 39.3001C34.78 39.3401 34.894 39.3781 35.012 39.4141C35.382 39.5281 35.746 39.6761 36.132 39.7381C55.968 43.0241 60.546 27.7561 60.546 27.7561C56.418 33.6961 48.424 36.5361 39.896 34.3201C39.518 34.2181 39.142 34.1121 38.77 33.9961C38.656 33.9601 38.548 33.9221 38.434 33.8861C38.168 33.8001 37.906 33.7101 37.646 33.6121C37.526 33.5701 37.41 33.5261 37.292 33.4841C37.006 33.3741 36.726 33.2621 36.444 33.1401C36.37 33.1081 36.292 33.0781 36.218 33.0461C35.866 32.8941 35.522 32.7301 35.182 32.5621C35.006 32.4801 34.834 32.3901 34.662 32.3001C34.564 32.2501 34.462 32.1941 34.364 32.1441C34.144 32.0261 33.924 31.9021 33.708 31.7781C33.656 31.7461 33.602 31.7201 33.55 31.6901C33.282 31.5341 33.018 31.3701 32.758 31.2061C32.676 31.1521 32.598 31.0961 32.516 31.0461C32.344 30.9321 32.172 30.8201 32.002 30.7021C31.636 30.4521 31.282 30.1861 30.93 29.9201C30.848 29.8541 30.768 29.7921 30.688 29.7281C26.954 26.7781 23.994 22.7521 22.586 18.1821C21.114 13.4441 21.43 8.12806 23.984 3.81006" fill="white"/>
<path d="M34.7101 3.43605C32.4461 6.76805 32.2241 10.9081 33.7961 14.5881C35.4521 18.4981 38.8481 21.5601 42.8121 23.0141C42.9761 23.0761 43.1401 23.1321 43.3041 23.1861C43.3781 23.2101 43.4481 23.2321 43.5221 23.2561C43.7541 23.3261 43.9861 23.4121 44.2301 23.4601C55.1821 25.5781 58.1501 17.8381 58.9421 16.6981C56.3361 20.4481 51.9681 21.3461 46.6001 20.0421C46.1761 19.9401 45.7101 19.788 45.3041 19.6441C44.7781 19.4561 44.2621 19.2421 43.7621 19.0041C42.8081 18.5461 41.9001 17.9921 41.0581 17.3561C36.2581 13.7121 33.2721 6.76205 36.4061 1.10205" fill="white"/>
</g>
<defs>
<clipPath id="clip0_22_676">
<rect width="60" height="60" fill="white"/>
</clipPath>
</defs>
</svg>
