<svg width="11" height="11" viewBox="0 0 11 11" fill="none" xmlns="http://www.w3.org/2000/svg">
<g clip-path="url(#clip0_4_228)">
<path d="M7.94443 11H1.83332C1.34359 11 0.88321 10.8093 0.536953 10.463C0.190697 10.1167 0 9.65632 0 9.16666V3.05555C0 2.56584 0.190719 2.10546 0.536975 1.7592C0.883231 1.41295 1.34361 1.22223 1.83334 1.22223H4.27778C4.61531 1.22223 4.8889 1.49582 4.8889 1.83334C4.8889 2.17087 4.61531 2.44446 4.27778 2.44446H1.83332C1.67008 2.44446 1.51663 2.50803 1.40123 2.62344C1.28582 2.73884 1.22223 2.89231 1.22223 3.05555V9.16666C1.22223 9.3299 1.2858 9.48335 1.40123 9.59879C1.51663 9.71418 1.67008 9.77777 1.83332 9.77777H7.9444C8.10765 9.77777 8.2611 9.7142 8.37652 9.59875C8.49193 9.48335 8.5555 9.32988 8.5555 9.16663V6.72222C8.5555 6.38469 8.82911 6.11112 9.16663 6.11112C9.50416 6.11112 9.77777 6.38471 9.77777 6.72222V9.16666C9.77777 9.65637 9.58705 10.1167 9.24077 10.463C8.8945 10.8093 8.43409 11 7.94443 11ZM4.27778 7.33331C4.12137 7.33331 3.96498 7.27367 3.84566 7.15433C3.60702 6.91569 3.60702 6.52872 3.84566 6.29008L8.9135 1.22223H6.72222C6.38469 1.22223 6.11112 0.94864 6.11112 0.611115C6.11112 0.273589 6.38469 0 6.72222 0H10.3889C10.4734 0 10.5539 0.0171634 10.6271 0.0481813C10.6955 0.0770858 10.7596 0.11897 10.8158 0.173854L10.8158 0.173897C10.8162 0.174302 10.8166 0.174687 10.817 0.175092C10.8171 0.175199 10.8173 0.175327 10.8174 0.175434C10.8177 0.175733 10.818 0.176053 10.8183 0.176373C10.8185 0.176586 10.8187 0.176779 10.8189 0.176992C10.8192 0.177227 10.8194 0.177483 10.8196 0.177675C10.82 0.178102 10.8205 0.17855 10.8209 0.178999C10.8214 0.179426 10.8218 0.179895 10.8223 0.180322C10.8225 0.180536 10.8228 0.180813 10.8229 0.181005C10.8232 0.181219 10.8233 0.181411 10.8235 0.181624C10.8239 0.181945 10.8242 0.182244 10.8245 0.182585C10.8246 0.18267 10.8247 0.18282 10.8248 0.182927C10.8252 0.183332 10.8256 0.183738 10.826 0.184143L10.8261 0.184186C10.8809 0.240373 10.9228 0.304543 10.9517 0.372855C10.9827 0.446077 10.9999 0.526557 10.9999 0.611093V4.27776C10.9999 4.61528 10.7263 4.88887 10.3888 4.88887C10.0513 4.88887 9.77768 4.61528 9.77768 4.27776V2.08648L4.70979 7.15436C4.59056 7.27369 4.43417 7.33331 4.27778 7.33331Z" fill="#0082F5"/>
</g>
<defs>
<clipPath id="clip0_4_228">
<rect width="11" height="11" fill="white"/>
</clipPath>
</defs>
</svg>
