<svg width="24" height="25" viewBox="0 0 24 25" fill="none" xmlns="http://www.w3.org/2000/svg">
<path d="M18.6131 0.561768H5.38691C2.4118 0.561768 0 2.97357 0 5.94867V19.1749C0 22.15 2.4118 24.5618 5.38691 24.5618H18.6131C21.5882 24.5618 24 22.15 24 19.1749V5.94867C24 2.97357 21.5882 0.561768 18.6131 0.561768Z" fill="#0B86CA"/>
<path d="M6.65116 10.5374H9.1451V18.5845H6.65116V10.5374ZM7.92307 6.53882C8.2088 6.53882 8.48813 6.62345 8.72582 6.78203C8.96351 6.94061 9.14891 7.16603 9.25863 7.42985C9.36836 7.69368 9.39748 7.98409 9.34234 8.26445C9.2872 8.54482 9.15026 8.80257 8.94879 9.00519C8.74733 9.20781 8.49037 9.34622 8.21033 9.40297C7.93029 9.45972 7.63971 9.43226 7.37526 9.32405C7.11081 9.21584 6.88433 9.03174 6.72439 8.79496C6.56446 8.55818 6.47823 8.27934 6.47659 7.99362C6.47549 7.80296 6.5121 7.61397 6.5843 7.43752C6.6565 7.26106 6.76287 7.10062 6.8973 6.96542C7.03173 6.83022 7.19156 6.72293 7.3676 6.64972C7.54364 6.5765 7.73241 6.53882 7.92307 6.53882ZM10.7412 10.5374H13.1437V11.6348C13.3842 11.2243 13.7316 10.8869 14.1489 10.6585C14.5662 10.4301 15.0376 10.3193 15.513 10.3379C18.0069 10.3379 18.514 12.0005 18.514 14.1703V18.5845H16.0201V14.694C16.0201 13.7629 16.0201 12.5575 14.7232 12.5575C13.4264 12.5575 13.2268 13.5717 13.2268 14.6192V18.6012H10.7329L10.7412 10.5374Z" fill="white"/>
</svg>
