<svg width="9" height="11" viewBox="0 0 9 11" fill="none" xmlns="http://www.w3.org/2000/svg">
<path d="M4.5 0C3.40643 0.00145065 2.35806 0.436513 1.58479 1.20979C0.811513 1.98306 0.376451 3.03143 0.375 4.125C0.375 7.08641 4.21812 10.7955 4.38141 10.9519C4.41317 10.9827 4.45571 11 4.5 11C4.54429 11 4.58683 10.9827 4.61859 10.9519C4.78187 10.7955 8.625 7.08641 8.625 4.125C8.62355 3.03143 8.18849 1.98306 7.41521 1.20979C6.64194 0.436513 5.59357 0.00145065 4.5 0ZM4.5 6.01562C4.12607 6.01562 3.76054 5.90474 3.44963 5.697C3.13871 5.48925 2.89639 5.19398 2.75329 4.84851C2.61019 4.50304 2.57275 4.1229 2.6457 3.75616C2.71865 3.38941 2.89872 3.05253 3.16313 2.78813C3.42753 2.52372 3.76441 2.34365 4.13116 2.2707C4.4979 2.19775 4.87804 2.23519 5.22351 2.37829C5.56898 2.52139 5.86425 2.76371 6.072 3.07463C6.27974 3.38554 6.39062 3.75107 6.39062 4.125C6.39032 4.62633 6.19104 5.10705 5.83654 5.46154C5.48205 5.81604 5.00133 6.01532 4.5 6.01562Z" fill="white"/>
</svg>
