<svg width="60" height="60" viewBox="0 0 60 60" fill="none" xmlns="http://www.w3.org/2000/svg">
<g clip-path="url(#clip0_22_669)">
<path fill-rule="evenodd" clip-rule="evenodd" d="M30.0001 0C46.5686 0 60 13.4316 60 30C60 46.5686 46.5686 60 30.0001 60C13.4316 60 0 46.5686 0 30C0 13.4316 13.4316 0 30.0001 0Z" fill="#CC6699"/>
<path d="M48.8182 12.8404C47.4596 7.51228 38.6251 5.76067 30.2636 8.73126C25.2876 10.4992 19.9006 13.2737 16.0273 16.8967C11.422 21.2042 10.6876 24.9535 10.9903 26.5201C12.0581 32.0479 19.6324 35.6612 22.7459 38.342V38.3583C21.8278 38.8101 15.108 42.2109 13.5353 45.6877C11.876 49.3556 13.7995 51.9876 15.073 52.3419C19.0185 53.4397 23.0674 51.4651 25.2433 48.2197C27.343 45.0876 27.1682 41.043 26.2557 39.0313C27.5144 38.6992 28.982 38.5503 30.8469 38.7682C36.1094 39.3828 37.1419 42.6688 36.9445 44.0438C36.7471 45.4192 35.6434 46.1752 35.2742 46.4034C34.9052 46.6318 34.7925 46.7109 34.8235 46.8806C34.8683 47.1273 35.0391 47.1181 35.3538 47.0648C35.787 46.9918 38.1173 45.9461 38.2168 43.4077C38.3437 40.1847 35.2551 36.5797 29.7864 36.6738C27.5342 36.7127 26.118 36.9269 25.095 37.3076C25.0193 37.2214 24.9424 37.1358 24.8628 37.0508C21.4819 33.4436 15.2319 30.8921 15.497 26.0429C15.5934 24.2799 16.2062 19.6378 27.5063 14.0069C36.7632 9.39431 44.1738 10.6636 45.4544 13.4767C47.2838 17.4956 41.4938 24.9654 31.8807 26.0429C28.2181 26.4535 26.2896 25.0339 25.8098 24.5053C25.3047 23.9486 25.2295 23.9236 25.0409 24.028C24.7338 24.1981 24.9284 24.6895 25.0409 24.9824C25.328 25.7293 26.5058 27.054 28.5139 27.7129C30.2804 28.2927 34.5806 28.6111 39.7812 26.5995C45.6057 24.3466 50.1541 18.0792 48.8182 12.8404ZM24.0382 39.9931C24.4746 41.6076 24.4268 43.1133 23.9758 44.4767C23.6172 45.5612 23.0006 46.5445 22.2309 47.3843C20.4878 49.2859 18.0525 50.0048 17.0082 49.3991C15.8805 48.7454 16.4453 46.0643 18.4664 43.9281C20.6404 41.6298 23.7685 40.152 23.7685 40.152L23.7638 40.1427C23.8538 40.0942 23.9453 40.0442 24.0382 39.9931Z" fill="white"/>
</g>
<defs>
<clipPath id="clip0_22_669">
<rect width="60" height="60" fill="white"/>
</clipPath>
</defs>
</svg>
