<svg width="1440" height="9" viewBox="0 0 1440 9" fill="none" xmlns="http://www.w3.org/2000/svg">
<g opacity="0.2">
<path d="M13.4854 2.80549C13.4854 1.25894 12.2365 3.28437e-05 10.7023 3.29108e-05L2.78309 3.32569e-05C1.24888 3.3324e-05 -3.38372e-07 1.25894 -2.70771e-07 2.80549L-1.2263e-07 6.19455C-5.50288e-08 7.74109 1.24888 9 2.78309 9L10.6982 9C12.2324 9 13.4813 7.74109 13.4813 6.19454L13.4813 5.46087L15.1023 5.46087L15.1023 6.19454C15.1023 7.74109 16.3512 9 17.8895 9L25.8046 9C27.3388 9 28.5877 7.74109 28.5877 6.19454L28.5877 5.46087L30.246 5.46087L30.246 6.19454C30.246 7.74109 31.4949 9 33.0291 9L40.9441 9C42.4783 9 43.7272 7.74109 43.7272 6.19454L43.7272 5.46087L45.2284 5.46087L45.2284 6.19454C45.2284 7.74109 46.4772 9 48.0115 9L55.9265 9C57.4607 9 58.7096 7.74109 58.7096 6.19454L58.7096 5.46087L60.3307 5.46087L60.3307 6.19454C60.3307 7.74109 61.5795 9 63.1138 9L71.0288 9C72.563 9 73.8119 7.74109 73.8119 6.19454L73.8119 5.46087L75.4702 5.46087L75.4702 6.19454C75.4702 7.74109 76.7191 9 78.2533 9L86.1684 9C87.7026 9 88.9515 7.74108 88.9515 6.19454L88.9515 5.46087L91.2176 5.46087L91.2176 6.19454C91.2176 7.74108 92.4665 9 94.0049 9L101.92 9C103.454 9 104.703 7.74108 104.703 6.19454L104.703 5.46087L106.324 5.46087L106.324 6.19454C106.324 7.74108 107.573 9 109.107 9L117.022 8.99999C118.556 8.99999 119.805 7.74108 119.805 6.19454L119.805 5.46087L121.464 5.46087L121.464 6.19454C121.464 7.74108 122.712 8.99999 124.247 8.99999L132.162 8.99999C133.696 8.99999 134.945 7.74108 134.945 6.19454L134.945 5.46087L136.446 5.46087L136.446 6.19454C136.446 7.74108 137.695 8.99999 139.229 8.99999L147.144 8.99999C148.678 8.99999 149.927 7.74108 149.927 6.19454L149.927 5.46087L151.548 5.46087L151.548 6.19454C151.548 7.74108 152.797 8.99999 154.331 8.99999L162.246 8.99999C163.781 8.99999 165.03 7.74108 165.03 6.19454L165.03 5.46087L166.688 5.46087L166.688 6.19454C166.688 7.74108 167.937 8.99999 169.471 8.99999L177.386 8.99999C178.92 8.99999 180.169 7.74108 180.169 6.19454L180.169 5.46087L182.402 5.46087L182.402 6.19454C182.402 7.74108 183.651 8.99999 185.185 8.99999L193.1 8.99999C194.635 8.99999 195.883 7.74108 195.883 6.19454L195.883 5.46087L197.504 5.46087L197.504 6.19454C197.504 7.74108 198.753 8.99999 200.288 8.99999L208.203 8.99999C209.737 8.99999 210.986 7.74108 210.986 6.19454L210.986 5.46087L212.644 5.46087L212.644 6.19454C212.644 7.74108 213.893 8.99999 215.427 8.99999L223.342 8.99999C224.876 8.99999 226.125 7.74108 226.125 6.19454L226.125 5.46086L227.626 5.46086L227.626 6.19454C227.626 7.74108 228.875 8.99999 230.409 8.99999L238.325 8.99999C239.859 8.99999 241.108 7.74108 241.108 6.19453L241.108 5.46086L242.729 5.46086L242.729 6.19453C242.729 7.74108 243.978 8.99999 245.512 8.99999L253.427 8.99999C254.961 8.99999 256.21 7.74108 256.21 6.19453L256.21 5.46086L257.868 5.46086L257.868 6.19453C257.868 7.74108 259.117 8.99999 260.651 8.99999L268.566 8.99999C270.101 8.99999 271.354 7.74108 271.354 6.19453L271.354 5.46086L273.62 5.46086L273.62 6.19453C273.62 7.74108 274.869 8.99999 276.403 8.99999L284.318 8.99999C285.852 8.99999 287.101 7.74108 287.101 6.19453L287.101 5.46086L288.722 5.46086L288.722 6.19453C288.722 7.74108 289.971 8.99999 291.509 8.99999L299.424 8.99999C300.959 8.99999 302.212 7.74108 302.212 6.19453L302.212 5.46086L303.866 5.46086L303.866 6.19453C303.866 7.74108 305.115 8.99999 306.649 8.99999L314.564 8.99999C316.098 8.99999 317.347 7.74107 317.347 6.19453L317.347 5.46086L318.848 5.46086L318.848 6.19453C318.848 7.74107 320.097 8.99999 321.635 8.99999L329.55 8.99999C331.085 8.99999 332.334 7.74107 332.334 6.19453L332.334 5.46086L333.955 5.46086L333.955 6.19453C333.955 7.74107 335.203 8.99999 336.738 8.99999L344.653 8.99998C346.187 8.99998 347.436 7.74107 347.436 6.19453L347.436 5.46086L349.09 5.46086L349.09 6.19453C349.09 7.74107 350.339 8.99998 351.873 8.99998L359.788 8.99998C361.322 8.99998 362.571 7.74107 362.571 6.19453L362.571 5.46086L364.143 5.46086L364.143 6.19453C364.143 7.74107 365.392 8.99998 366.926 8.99998L374.841 8.99998C376.375 8.99998 377.624 7.74107 377.624 6.19453L377.624 5.46086L379.245 5.46086L379.245 6.19453C379.245 7.74107 380.494 8.99998 382.028 8.99998L389.943 8.99998C391.477 8.99998 392.726 7.74107 392.726 6.19453L392.726 5.46086L394.385 5.46086L394.385 6.19453C394.385 7.74107 395.633 8.99998 397.168 8.99998L405.083 8.99998C406.617 8.99998 407.87 7.74107 407.87 6.19453L407.87 5.46086L409.371 5.46086L409.371 6.19453C409.371 7.74107 410.62 8.99998 412.154 8.99998L420.069 8.99998C421.603 8.99998 422.856 7.74107 422.856 6.19453L422.856 5.46086L424.477 5.46086L424.477 6.19453C424.477 7.74107 425.726 8.99998 427.261 8.99998L435.176 8.99998C436.71 8.99998 437.959 7.74107 437.959 6.19453L437.959 5.46086L439.617 5.46086L439.617 6.19453C439.617 7.74107 440.866 8.99998 442.4 8.99998L450.315 8.99998C451.849 8.99998 453.102 7.74107 453.102 6.19453L453.102 5.46085L455.369 5.46085L455.369 6.19453C455.369 7.74107 456.617 8.99998 458.152 8.99998L466.067 8.99998C467.601 8.99998 468.85 7.74107 468.85 6.19452L468.85 5.46085L470.475 5.46085L470.475 6.19452C470.475 7.74107 471.724 8.99998 473.258 8.99998L481.173 8.99998C482.707 8.99998 483.956 7.74107 483.956 6.19452L483.956 5.46085L485.615 5.46085L485.615 6.19452C485.615 7.74107 486.863 8.99998 488.398 8.99998L496.313 8.99998C497.847 8.99998 499.1 7.74107 499.1 6.19452L499.1 5.46085L500.601 5.46085L500.601 6.19452C500.601 7.74107 501.85 8.99998 503.384 8.99998L511.299 8.99998C512.833 8.99998 514.082 7.74107 514.082 6.19452L514.082 5.46085L515.703 5.46085L515.703 6.19452C515.703 7.74107 516.952 8.99998 518.486 8.99998L526.402 8.99998C527.936 8.99998 529.185 7.74107 529.185 6.19452L529.185 5.46085L530.843 5.46085L530.843 6.19452C530.843 7.74107 532.092 8.99998 533.626 8.99998L541.541 8.99998C543.075 8.99998 544.328 7.74106 544.328 6.19452L544.328 5.46085L546.557 5.46085L546.557 6.19452C546.557 7.74106 547.806 8.99998 549.344 8.99998L557.26 8.99998C558.794 8.99998 560.047 7.74106 560.047 6.19452L560.047 5.46085L561.668 5.46085L561.668 6.19452C561.668 7.74106 562.917 8.99998 564.451 8.99998L572.366 8.99997C573.9 8.99997 575.149 7.74106 575.149 6.19452L575.149 5.46085L576.803 5.46085L576.803 6.19452C576.803 7.74106 578.052 8.99997 579.59 8.99997L587.505 8.99997C589.04 8.99997 590.293 7.74106 590.293 6.19452L590.293 5.46085L591.794 5.46085L591.794 6.19452C591.794 7.74106 593.043 8.99997 594.581 8.99997L602.496 8.99997C604.03 8.99997 605.279 7.74106 605.279 6.19452L605.279 5.46085L606.9 5.46085L606.9 6.19452C606.9 7.74106 608.149 8.99997 609.683 8.99997L617.598 8.99997C619.133 8.99997 620.386 7.74106 620.386 6.19452L620.386 5.46085L622.04 5.46085L622.04 6.19452C622.04 7.74106 623.289 8.99997 624.827 8.99997L632.742 8.99997C634.276 8.99997 635.529 7.74106 635.529 6.19452L635.529 5.46085L637.796 5.46085L637.796 6.19452C637.796 7.74106 639.044 8.99997 640.579 8.99997L648.494 8.99997C650.028 8.99997 651.277 7.74106 651.277 6.19452L651.277 5.46085L652.898 5.46085L652.898 6.19452C652.898 7.74106 654.147 8.99997 655.681 8.99997L663.596 8.99997C665.13 8.99997 666.379 7.74106 666.379 6.19452L666.379 5.46085L668.037 5.46085L668.037 6.19452C668.037 7.74106 669.286 8.99997 670.82 8.99997L678.736 8.99997C680.27 8.99997 681.519 7.74106 681.519 6.19452L681.519 5.46085L683.02 5.46084L683.02 6.19452C683.02 7.74106 684.269 8.99997 685.803 8.99997L693.718 8.99997C695.252 8.99997 696.505 7.74106 696.505 6.19451L696.505 5.46084L698.126 5.46084L698.126 6.19451C698.126 7.74106 699.375 8.99997 700.909 8.99997L708.824 8.99997C710.359 8.99997 711.607 7.74106 711.607 6.19451L711.607 5.46084L713.266 5.46084L713.266 6.19451C713.266 7.74106 714.515 8.99997 716.049 8.99997L723.964 8.99997C725.498 8.99997 726.747 7.74106 726.747 6.19451L726.747 2.80546C726.747 1.25891 725.498 1.66607e-06 723.964 1.73313e-06L716.049 2.07911e-06C714.515 2.14617e-06 713.266 1.25891 713.266 2.80546L713.266 3.47243L711.607 3.47243L711.607 2.80546C711.607 1.25891 710.359 2.32784e-06 708.824 2.3949e-06L700.909 2.74088e-06C699.375 2.80794e-06 698.126 1.25891 698.126 2.80546L698.126 3.47243L696.505 3.47243L696.505 2.80546C696.505 1.25891 695.256 2.98798e-06 693.718 3.05523e-06L685.803 3.40121e-06C684.269 3.46827e-06 683.02 1.25892 683.02 2.80546L683.02 3.47243L681.519 3.47243L681.519 2.80546C681.519 1.25892 680.27 3.64306e-06 678.736 3.71013e-06L670.82 4.05611e-06C669.286 4.12317e-06 668.037 1.25892 668.037 2.80546L668.037 3.47243L666.379 3.47243L666.379 2.80546C666.379 1.25892 665.13 4.30484e-06 663.596 4.3719e-06L655.681 4.71788e-06C654.147 4.78494e-06 652.898 1.25892 652.898 2.80546L652.898 3.47243L651.277 3.47243L651.277 2.80546C651.277 1.25892 650.028 4.96498e-06 648.494 5.03204e-06L640.579 5.37802e-06C639.044 5.44508e-06 637.796 1.25892 637.796 2.80546L637.796 3.47243L635.529 3.47243L635.529 2.80546C635.529 1.25892 634.28 5.65332e-06 632.742 5.72056e-06L624.827 6.06654e-06C623.293 6.13361e-06 622.04 1.25892 622.04 2.80546L622.04 3.47243L620.386 3.47243L620.386 2.80546C620.386 1.25892 619.137 6.31527e-06 617.598 6.38252e-06L609.683 6.72849e-06C608.149 6.79556e-06 606.9 1.25892 606.9 2.80546L606.9 3.47243L605.279 3.47243L605.279 2.80546C605.279 1.25892 604.03 6.9756e-06 602.496 7.04266e-06L594.581 7.38864e-06C593.047 7.4557e-06 591.794 1.25892 591.794 2.80546L591.794 3.47244L590.293 3.47244L590.293 2.80546C590.293 1.25892 589.044 7.63068e-06 587.505 7.69792e-06L579.59 8.0439e-06C578.056 8.11096e-06 576.803 1.25892 576.803 2.80546L576.803 3.47244L575.149 3.47244L575.149 2.80546C575.149 1.25892 573.9 8.29263e-06 572.366 8.35969e-06L564.451 8.70567e-06C562.917 8.77273e-06 561.668 1.25892 561.668 2.80546L561.668 3.47244L560.047 3.47244L560.047 2.80546C560.047 1.25892 558.798 8.95277e-06 557.26 9.02001e-06L549.344 9.36599e-06C547.81 9.43305e-06 546.557 1.25892 546.557 2.80546L546.557 3.47244L544.328 3.47244L544.328 2.80546C544.328 1.25892 543.079 9.63985e-06 541.541 9.70709e-06L533.626 1.00531e-05C532.092 1.01201e-05 530.843 1.25892 530.843 2.80547L530.843 3.47244L529.185 3.47244L529.185 2.80547C529.185 1.25892 527.936 1.03018e-05 526.402 1.03689e-05L518.486 1.07148e-05C516.952 1.07819e-05 515.703 1.25892 515.703 2.80547L515.703 3.47244L514.082 3.47244L514.082 2.80547C514.082 1.25892 512.833 1.09619e-05 511.299 1.1029e-05L503.384 1.1375e-05C501.85 1.1442e-05 500.601 1.25892 500.601 2.80547L500.601 3.47244L499.1 3.47244L499.1 2.80547C499.1 1.25892 497.851 1.16168e-05 496.313 1.16841e-05L488.398 1.20301e-05C486.863 1.20971e-05 485.615 1.25892 485.615 2.80547L485.615 3.47244L483.956 3.47244L483.956 2.80547C483.956 1.25892 482.707 1.22788e-05 481.173 1.23459e-05L473.258 1.26918e-05C471.724 1.27589e-05 470.475 1.25892 470.475 2.80547L470.475 3.47244L468.85 3.47244L468.85 2.80547C468.85 1.25892 467.601 1.29391e-05 466.067 1.30062e-05L458.152 1.33522e-05C456.617 1.34192e-05 455.369 1.25893 455.369 2.80547L455.369 3.47244L453.102 3.47244L453.102 2.80547C453.102 1.25893 451.853 1.36275e-05 450.315 1.36947e-05L442.4 1.40407e-05C440.866 1.41077e-05 439.617 1.25893 439.617 2.80547L439.617 3.47244L437.959 3.47244L437.959 2.80547C437.959 1.25893 436.71 1.42894e-05 435.176 1.43565e-05L427.261 1.47025e-05C425.726 1.47695e-05 424.477 1.25893 424.477 2.80547L424.477 3.47244L422.856 3.47244L422.856 2.80547C422.856 1.25893 421.608 1.49496e-05 420.069 1.50168e-05L412.154 1.53628e-05C410.62 1.54298e-05 409.371 1.25893 409.371 2.80547L409.371 3.47244L407.87 3.47244L407.87 2.80547C407.87 1.25893 406.621 1.56046e-05 405.083 1.56719e-05L397.168 1.60179e-05C395.633 1.60849e-05 394.385 1.25893 394.385 2.80547L394.385 3.47244L392.726 3.47244L392.726 2.80547C392.726 1.25893 391.477 1.62666e-05 389.943 1.63336e-05L382.028 1.66796e-05C380.494 1.67467e-05 379.245 1.25893 379.245 2.80547L379.245 3.47244L377.624 3.47244L377.624 2.80547C377.624 1.25893 376.375 1.69267e-05 374.841 1.69938e-05L366.926 1.73398e-05C365.392 1.74068e-05 364.143 1.25893 364.143 2.80547L364.143 3.47245L362.571 3.47245L362.571 2.80547C362.571 1.25893 361.322 1.75847e-05 359.788 1.76518e-05L351.873 1.79977e-05C350.339 1.80648e-05 349.09 1.25893 349.09 2.80547L349.09 3.47245L347.436 3.47245L347.436 2.80547C347.436 1.25893 346.187 1.82463e-05 344.653 1.83134e-05L336.738 1.86593e-05C335.203 1.87264e-05 333.955 1.25893 333.955 2.80547L333.955 3.47245L332.334 3.47245L332.334 2.80547C332.334 1.25893 331.085 1.89064e-05 329.55 1.89735e-05L321.635 1.93195e-05C320.101 1.93865e-05 318.848 1.25893 318.848 2.80547L318.848 3.47245L317.347 3.47245L317.347 2.80547C317.347 1.25893 316.098 1.95615e-05 314.564 1.96286e-05L306.649 1.99746e-05C305.115 2.00416e-05 303.866 1.25893 303.866 2.80548L303.866 3.47245L302.212 3.47245L302.212 2.80548C302.212 1.25893 300.963 2.02231e-05 299.424 2.02903e-05L291.509 2.06363e-05C289.975 2.07034e-05 288.722 1.25893 288.722 2.80548L288.722 3.47245L287.101 3.47245L287.101 2.80548C287.101 1.25893 285.852 2.08836e-05 284.318 2.09507e-05L276.403 2.12966e-05C274.869 2.13637e-05 273.62 1.25893 273.62 2.80548L273.62 3.47245L271.354 3.47245L271.354 2.80548C271.354 1.25893 270.105 2.15719e-05 268.566 2.16392e-05L260.651 2.19852e-05C259.117 2.20522e-05 257.868 1.25893 257.868 2.80548L257.868 3.47245L256.21 3.47245L256.21 2.80548C256.21 1.25893 254.961 2.22339e-05 253.427 2.2301e-05L245.512 2.26469e-05C243.978 2.2714e-05 242.729 1.25893 242.729 2.80548L242.729 3.47245L241.108 3.47245L241.108 2.80548C241.108 1.25893 239.859 2.2894e-05 238.325 2.29611e-05L230.409 2.33071e-05C228.875 2.33741e-05 227.626 1.25894 227.626 2.80548L227.626 3.47245L226.125 3.47245L226.125 2.80548C226.125 1.25894 224.876 2.35489e-05 223.342 2.3616e-05L215.427 2.3962e-05C213.893 2.4029e-05 212.644 1.25894 212.644 2.80548L212.644 3.47245L210.986 3.47245L210.986 2.80548C210.986 1.25894 209.737 2.42107e-05 208.203 2.42778e-05L200.288 2.46238e-05C198.753 2.46908e-05 197.504 1.25894 197.504 2.80548L197.504 3.47245L195.883 3.47245L195.883 2.80548C195.883 1.25894 194.635 2.48709e-05 193.1 2.49379e-05L185.185 2.52839e-05C183.651 2.5351e-05 182.402 1.25894 182.402 2.80548L182.402 3.47245L180.169 3.47245L180.169 2.80548C180.169 1.25894 178.92 2.55578e-05 177.386 2.56248e-05L169.471 2.59708e-05C167.937 2.60379e-05 166.688 1.25894 166.688 2.80548L166.688 3.47245L165.03 3.47245L165.03 2.80548C165.03 1.25894 163.781 2.62195e-05 162.246 2.62866e-05L154.331 2.66326e-05C152.797 2.66996e-05 151.548 1.25894 151.548 2.80548L151.548 3.47245L149.927 3.47245L149.927 2.80548C149.927 1.25894 148.678 2.68797e-05 147.144 2.69467e-05L139.229 2.72927e-05C137.695 2.73598e-05 136.446 1.25894 136.446 2.80548L136.446 3.47246L134.945 3.47246L134.945 2.80548C134.945 1.25894 133.696 2.75346e-05 132.162 2.76016e-05L124.247 2.79476e-05C122.712 2.80147e-05 121.464 1.25894 121.464 2.80548L121.464 3.47246L119.805 3.47246L119.805 2.80548C119.805 1.25894 118.556 2.81963e-05 117.022 2.82634e-05L109.107 2.86094e-05C107.573 2.86764e-05 106.324 1.25894 106.324 2.80548L106.324 3.47246L104.703 3.47246L104.703 2.80548C104.703 1.25894 103.454 2.88565e-05 101.92 2.89235e-05L94.0049 2.92695e-05C92.4706 2.93366e-05 91.2176 1.25894 91.2176 2.80548L91.2176 3.47246L88.9515 3.47246L88.9515 2.80548C88.9515 1.25894 87.7026 2.9545e-05 86.1683 2.96121e-05L78.2533 2.9958e-05C76.7191 3.00251e-05 75.4702 1.25894 75.4702 2.80549L75.4702 3.47246L73.8119 3.47246L73.8119 2.80549C73.8119 1.25894 72.563 3.02068e-05 71.0288 3.02738e-05L63.1138 3.06198e-05C61.5795 3.06869e-05 60.3307 1.25894 60.3307 2.80549L60.3307 3.47246L58.7096 3.47246L58.7096 2.80549C58.7096 1.25894 57.4607 3.08669e-05 55.9265 3.0934e-05L48.0115 3.128e-05C46.4772 3.1347e-05 45.2284 1.25894 45.2284 2.80549L45.2284 3.47246L43.7272 3.47246L43.7272 2.80549C43.7272 1.25894 42.4783 3.15218e-05 40.9441 3.15889e-05L33.0291 3.19349e-05C31.4949 3.20019e-05 30.246 1.25894 30.246 2.80549L30.246 3.47246L28.5877 3.47246L28.5877 2.80549C28.5877 1.25894 27.3388 3.21836e-05 25.8046 3.22506e-05L17.8895 3.25966e-05C16.3553 3.26637e-05 15.1023 1.25894 15.1023 2.80549L15.1023 3.47246L13.4813 3.47246L13.4813 2.80549L13.4854 2.80549ZM715.379 2.80546C715.379 2.35525 715.743 1.98425 716.189 1.98425L724.104 1.98425C724.551 1.98425 724.919 2.35108 724.919 2.80546L724.919 6.19451C724.919 6.64472 724.555 7.01572 724.104 7.01572L716.189 7.01572C715.743 7.01572 715.379 6.64889 715.379 6.19451L715.379 5.46084L715.813 5.46084C716.359 5.46084 716.797 5.01481 716.797 4.46872C716.797 3.92264 716.355 3.4766 715.813 3.4766L715.379 3.4766L715.379 2.80963L715.379 2.80546ZM700.239 2.80546C700.239 2.35525 700.603 1.98425 701.05 1.98425L708.965 1.98425C709.412 1.98425 709.776 2.35108 709.776 2.80546L709.776 3.47243L708.907 3.47243C708.361 3.47243 707.923 3.91847 707.923 4.46455C707.923 5.01064 708.365 5.45668 708.907 5.45668L709.776 5.45668L709.776 6.19035C709.776 6.64055 709.412 7.01156 708.965 7.01156L701.05 7.01156C700.603 7.01156 700.239 6.64472 700.239 6.19035L700.239 5.45668L700.674 5.45668C701.219 5.45668 701.658 5.01064 701.658 4.46455C701.658 3.91847 701.215 3.47243 700.674 3.47243L700.239 3.47243L700.239 2.80546ZM685.129 2.80546C685.129 2.35525 685.493 1.98425 685.939 1.98425L693.854 1.98425C694.305 1.98425 694.669 2.35108 694.669 2.80546L694.669 3.47243L693.768 3.47243C693.222 3.47243 692.783 3.91847 692.783 4.46455C692.783 5.01064 693.226 5.45668 693.768 5.45668L694.669 5.45668L694.669 6.19035C694.669 6.64055 694.305 7.01156 693.854 7.01156L685.939 7.01156C685.493 7.01156 685.129 6.64472 685.129 6.19035L685.129 5.45668L685.563 5.45668C686.109 5.45668 686.547 5.01064 686.547 4.46455C686.547 3.91847 686.105 3.47243 685.563 3.47243L685.129 3.47243L685.129 2.80546ZM670.142 2.80546C670.142 2.35525 670.506 1.98425 670.953 1.98425L678.868 1.98425C679.314 1.98425 679.682 2.35108 679.682 2.80546L679.682 3.47243L678.661 3.47243C678.115 3.47243 677.677 3.91847 677.677 4.46455C677.677 5.01064 678.119 5.45668 678.661 5.45668L679.682 5.45668L679.682 6.19035C679.682 6.64055 679.319 7.01156 678.868 7.01156L670.953 7.01156C670.506 7.01156 670.142 6.64472 670.142 6.19035L670.142 5.45668L670.576 5.45668C671.122 5.45668 671.561 5.01064 671.561 4.46455C671.561 3.91847 671.118 3.47243 670.576 3.47243L670.142 3.47243L670.142 2.80546ZM654.999 2.80546C654.999 2.35525 655.362 1.98425 655.813 1.98425L663.728 1.98425C664.175 1.98425 664.539 2.35108 664.539 2.80546L664.539 3.47243L663.67 3.47243C663.125 3.47243 662.686 3.91847 662.686 4.46455C662.686 5.01064 663.129 5.45668 663.67 5.45668L664.539 5.45668L664.539 6.19035C664.539 6.64055 664.175 7.01156 663.728 7.01156L655.813 7.01156C655.367 7.01156 654.999 6.64472 654.999 6.19035L654.999 5.45668L655.433 5.45668C655.979 5.45668 656.417 5.01064 656.417 4.46456C656.417 3.91847 655.975 3.47243 655.433 3.47243L654.999 3.47243L654.999 2.80546ZM639.888 2.80546C639.888 2.35525 640.252 1.98425 640.699 1.98425L648.614 1.98425C649.06 1.98425 649.428 2.35108 649.428 2.80546L649.428 3.47243L648.527 3.47243C647.981 3.47243 647.543 3.91847 647.543 4.46456C647.543 5.01064 647.985 5.45668 648.527 5.45668L649.428 5.45668L649.428 6.19035C649.428 6.64055 649.064 7.01156 648.614 7.01156L640.699 7.01156C640.252 7.01156 639.888 6.64472 639.888 6.19035L639.888 5.45668L640.322 5.45668C640.868 5.45668 641.306 5.01064 641.306 4.46456C641.306 3.91847 640.864 3.47243 640.322 3.47243L639.888 3.47243L639.888 2.80546ZM624.141 2.80546C624.141 2.35525 624.505 1.98425 624.955 1.98425L632.87 1.98425C633.317 1.98425 633.685 2.35109 633.685 2.80546L633.685 3.47243L633.424 3.47243C632.879 3.47243 632.44 3.91847 632.44 4.46456C632.44 5.01064 632.883 5.45668 633.424 5.45668L633.685 5.45668L633.685 6.19035C633.685 6.64056 633.321 7.01156 632.87 7.01156L624.955 7.01156C624.509 7.01156 624.141 6.64472 624.141 6.19035L624.141 5.45668L624.575 5.45668C625.121 5.45668 625.559 5.01064 625.559 4.46456C625.559 3.91847 625.117 3.47243 624.575 3.47243L624.141 3.47243L624.141 2.80546ZM608.997 2.80546C608.997 2.35526 609.361 1.98425 609.807 1.98425L617.723 1.98425C618.173 1.98425 618.537 2.35109 618.537 2.80546L618.537 3.47243L617.669 3.47243C617.123 3.47243 616.685 3.91847 616.685 4.46456C616.685 5.01064 617.127 5.45668 617.669 5.45668L618.537 5.45668L618.537 6.19035C618.537 6.64056 618.173 7.01156 617.723 7.01156L609.807 7.01156C609.361 7.01156 608.997 6.64473 608.997 6.19035L608.997 5.45668L609.431 5.45668C609.977 5.45668 610.415 5.01064 610.415 4.46456C610.415 3.91847 609.973 3.47243 609.431 3.47243L608.997 3.47243L608.997 2.80546ZM593.891 2.80546C593.891 2.35526 594.254 1.98425 594.705 1.98425L602.62 1.98425C603.067 1.98425 603.435 2.35109 603.435 2.80546L603.435 3.47243L602.533 3.47243C601.988 3.47243 601.549 3.91847 601.549 4.46456C601.549 5.01064 601.992 5.45668 602.533 5.45668L603.435 5.45668L603.435 6.19035C603.435 6.64056 603.071 7.01156 602.62 7.01156L594.705 7.01156C594.259 7.01156 593.891 6.64473 593.891 6.19035L593.891 5.45668L594.325 5.45668C594.871 5.45668 595.309 5.01064 595.309 4.46456C595.309 3.91847 594.866 3.47244 594.325 3.47244L593.891 3.47244L593.891 2.80546ZM578.9 2.80546C578.9 2.35526 579.264 1.98425 579.714 1.98425L587.63 1.98425C588.076 1.98425 588.444 2.35109 588.444 2.80546L588.444 3.47244L587.423 3.47244C586.877 3.47244 586.439 3.91847 586.439 4.46456C586.439 5.01064 586.881 5.45668 587.423 5.45668L588.444 5.45668L588.444 6.19035C588.444 6.64056 588.08 7.01156 587.63 7.01156L579.714 7.01156C579.268 7.01156 578.9 6.64473 578.9 6.19035L578.9 5.45668L579.334 5.45668C579.88 5.45668 580.318 5.01064 580.318 4.46456C580.318 3.91847 579.876 3.47244 579.334 3.47244L578.9 3.47244L578.9 2.80546ZM563.76 2.80546C563.76 2.35526 564.124 1.98425 564.571 1.98425L572.486 1.98425C572.932 1.98425 573.301 2.35109 573.301 2.80546L573.301 3.47244L572.432 3.47244C571.886 3.47244 571.448 3.91847 571.448 4.46456C571.448 5.01064 571.89 5.45668 572.432 5.45668L573.301 5.45668L573.301 6.19035C573.301 6.64056 572.937 7.01156 572.486 7.01156L564.571 7.01156C564.124 7.01156 563.76 6.64473 563.76 6.19035L563.76 5.45668L564.195 5.45668C564.74 5.45668 565.179 5.01064 565.179 4.46456C565.179 3.91847 564.736 3.47244 564.195 3.47244L563.76 3.47244L563.76 2.80546ZM548.65 2.80546C548.65 2.35526 549.014 1.98425 549.464 1.98425L557.379 1.98425C557.826 1.98425 558.194 2.35109 558.194 2.80546L558.194 3.47244L557.293 3.47244C556.747 3.47244 556.308 3.91848 556.308 4.46456C556.308 5.01064 556.751 5.45668 557.293 5.45668L558.194 5.45668L558.194 6.19035C558.194 6.64056 557.83 7.01156 557.379 7.01156L549.464 7.01156C549.014 7.01156 548.65 6.64473 548.65 6.19035L548.65 5.45668L549.084 5.45668C549.63 5.45668 550.068 5.01064 550.068 4.46456C550.068 3.91848 549.626 3.47244 549.084 3.47244L548.65 3.47244L548.65 2.80546ZM532.935 2.80547C532.935 2.35526 533.299 1.98425 533.75 1.98425L541.665 1.98425C542.116 1.98425 542.48 2.35109 542.48 2.80546L542.48 3.47244L542.186 3.47244C541.64 3.47244 541.202 3.91848 541.202 4.46456C541.202 5.01064 541.644 5.45668 542.186 5.45668L542.48 5.45668L542.48 6.19035C542.48 6.64056 542.116 7.01156 541.665 7.01156L533.75 7.01156C533.303 7.01156 532.935 6.64473 532.935 6.19035L532.935 5.45668L533.37 5.45668C533.915 5.45668 534.354 5.01064 534.354 4.46456C534.354 3.91848 533.911 3.47244 533.37 3.47244L532.935 3.47244L532.935 2.80547ZM517.792 2.80547C517.792 2.35526 518.156 1.98426 518.602 1.98426L526.517 1.98426C526.964 1.98426 527.328 2.35109 527.328 2.80547L527.328 3.47244L526.459 3.47244C525.914 3.47244 525.475 3.91848 525.475 4.46456C525.475 5.01064 525.918 5.45668 526.459 5.45668L527.328 5.45668L527.328 6.19035C527.328 6.64056 526.964 7.01156 526.517 7.01156L518.602 7.01156C518.156 7.01156 517.792 6.64473 517.792 6.19035L517.792 5.45668L518.226 5.45668C518.772 5.45668 519.21 5.01065 519.21 4.46456C519.21 3.91848 518.768 3.47244 518.226 3.47244L517.792 3.47244L517.792 2.80547ZM502.681 2.80547C502.681 2.35526 503.045 1.98426 503.496 1.98426L511.411 1.98426C511.858 1.98426 512.221 2.35109 512.221 2.80547L512.221 3.47244L511.32 3.47244C510.774 3.47244 510.336 3.91848 510.336 4.46456C510.336 5.01065 510.778 5.45668 511.32 5.45668L512.221 5.45668L512.221 6.19035C512.221 6.64056 511.858 7.01156 511.411 7.01156L503.496 7.01156C503.049 7.01156 502.681 6.64473 502.681 6.19035L502.681 5.45668L503.115 5.45668C503.661 5.45668 504.1 5.01065 504.1 4.46456C504.1 3.91848 503.657 3.47244 503.115 3.47244L502.681 3.47244L502.681 2.80547ZM487.695 2.80547C487.695 2.35526 488.059 1.98426 488.505 1.98426L496.42 1.98426C496.867 1.98426 497.235 2.35109 497.235 2.80547L497.235 3.47244L496.209 3.47244C495.663 3.47244 495.225 3.91848 495.225 4.46456C495.225 5.01065 495.668 5.45668 496.209 5.45668L497.235 5.45668L497.235 6.19035C497.235 6.64056 496.871 7.01157 496.42 7.01157L488.505 7.01157C488.059 7.01157 487.695 6.64473 487.695 6.19036L487.695 5.45668L488.129 5.45668C488.675 5.45668 489.113 5.01065 489.113 4.46456C489.113 3.91848 488.671 3.47244 488.129 3.47244L487.695 3.47244L487.695 2.80547ZM472.551 2.80547C472.551 2.35526 472.915 1.98426 473.362 1.98426L481.277 1.98426C481.723 1.98426 482.087 2.35109 482.087 2.80547L482.087 3.47244L481.219 3.47244C480.673 3.47244 480.234 3.91848 480.234 4.46456C480.234 5.01065 480.677 5.45669 481.219 5.45669L482.087 5.45668L482.087 6.19036C482.087 6.64056 481.723 7.01157 481.277 7.01157L473.362 7.01157C472.915 7.01157 472.551 6.64473 472.551 6.19036L472.551 5.45669L472.985 5.45669C473.531 5.45669 473.969 5.01065 473.969 4.46456C473.969 3.91848 473.527 3.47244 472.985 3.47244L472.551 3.47244L472.551 2.80547ZM457.445 2.80547C457.445 2.35526 457.808 1.98426 458.259 1.98426L466.174 1.98426C466.621 1.98426 466.985 2.35109 466.985 2.80547L466.985 3.47244L466.083 3.47244C465.537 3.47244 465.099 3.91848 465.099 4.46456C465.099 5.01065 465.542 5.45669 466.083 5.45669L466.985 5.45669L466.985 6.19036C466.985 6.64056 466.621 7.01157 466.174 7.01157L458.259 7.01157C457.813 7.01157 457.445 6.64473 457.445 6.19036L457.445 5.45669L457.879 5.45669C458.425 5.45669 458.863 5.01065 458.863 4.46456C458.863 3.91848 458.42 3.47244 457.879 3.47244L457.445 3.47244L457.445 2.80547ZM441.693 2.80547C441.693 2.35526 442.057 1.98426 442.504 1.98426L450.419 1.98426C450.869 1.98426 451.233 2.35109 451.233 2.80547L451.233 3.47244L450.973 3.47244C450.427 3.47244 449.988 3.91848 449.988 4.46456C449.988 5.01065 450.431 5.45669 450.973 5.45669L451.233 5.45669L451.233 6.19036C451.233 6.64056 450.869 7.01157 450.419 7.01157L442.504 7.01157C442.057 7.01157 441.693 6.64473 441.693 6.19036L441.693 5.45669L442.127 5.45669C442.673 5.45669 443.111 5.01065 443.111 4.46456C443.111 3.91848 442.669 3.47244 442.127 3.47244L441.693 3.47244L441.693 2.80547ZM426.553 2.80547C426.553 2.35526 426.917 1.98426 427.364 1.98426L435.279 1.98426C435.726 1.98426 436.09 2.35109 436.09 2.80547L436.09 3.47244L435.221 3.47244C434.675 3.47244 434.237 3.91848 434.237 4.46456C434.237 5.01065 434.679 5.45669 435.221 5.45669L436.09 5.45669L436.09 6.19036C436.09 6.64056 435.726 7.01157 435.279 7.01157L427.364 7.01157C426.917 7.01157 426.553 6.64473 426.553 6.19036L426.553 5.45669L426.988 5.45669C427.534 5.45669 427.972 5.01065 427.972 4.46457C427.972 3.91848 427.529 3.47244 426.988 3.47244L426.553 3.47244L426.553 2.80547ZM411.443 2.80547C411.443 2.35526 411.807 1.98426 412.253 1.98426L420.168 1.98426C420.615 1.98426 420.983 2.35109 420.983 2.80547L420.983 3.47244L420.082 3.47244C419.536 3.47244 419.097 3.91848 419.097 4.46457C419.097 5.01065 419.54 5.45669 420.082 5.45669L420.983 5.45669L420.983 6.19036C420.983 6.64056 420.619 7.01157 420.168 7.01157L412.253 7.01157C411.807 7.01157 411.443 6.64473 411.443 6.19036L411.443 5.45669L411.877 5.45669C412.423 5.45669 412.861 5.01065 412.861 4.46457C412.861 3.91848 412.419 3.47244 411.877 3.47244L411.443 3.47244L411.443 2.80547ZM396.456 2.80547C396.456 2.35526 396.82 1.98426 397.267 1.98426L405.182 1.98426C405.629 1.98426 405.997 2.3511 405.997 2.80547L405.997 3.47244L404.971 3.47244C404.425 3.47244 403.987 3.91848 403.987 4.46457C403.987 5.01065 404.429 5.45669 404.971 5.45669L405.997 5.45669L405.997 6.19036C405.997 6.64057 405.633 7.01157 405.182 7.01157L397.267 7.01157C396.82 7.01157 396.456 6.64473 396.456 6.19036L396.456 5.45669L396.891 5.45669C397.436 5.45669 397.875 5.01065 397.875 4.46457C397.875 3.91848 397.432 3.47244 396.891 3.47244L396.456 3.47244L396.456 2.80547ZM381.313 2.80547C381.313 2.35527 381.677 1.98426 382.127 1.98426L390.042 1.98426C390.489 1.98426 390.853 2.3511 390.853 2.80547L390.853 3.47244L389.984 3.47244C389.439 3.47244 389 3.91848 389 4.46457C389 5.01065 389.443 5.45669 389.984 5.45669L390.853 5.45669L390.853 6.19036C390.853 6.64057 390.489 7.01157 390.042 7.01157L382.127 7.01157C381.681 7.01157 381.313 6.64474 381.313 6.19036L381.313 5.45669L381.747 5.45669C382.293 5.45669 382.731 5.01065 382.731 4.46457C382.731 3.91848 382.289 3.47244 381.747 3.47244L381.313 3.47244L381.313 2.80547ZM366.206 2.80547C366.206 2.35527 366.57 1.98426 367.017 1.98426L374.932 1.98426C375.378 1.98426 375.746 2.3511 375.746 2.80547L375.746 3.47244L374.845 3.47244C374.299 3.47244 373.861 3.91848 373.861 4.46457C373.861 5.01065 374.303 5.45669 374.845 5.45669L375.746 5.45669L375.746 6.19036C375.746 6.64057 375.383 7.01157 374.932 7.01157L367.017 7.01157C366.57 7.01157 366.206 6.64474 366.206 6.19036L366.206 5.45669L366.64 5.45669C367.186 5.45669 367.625 5.01065 367.625 4.46457C367.625 3.91848 367.182 3.47245 366.64 3.47245L366.206 3.47245L366.206 2.80547ZM351.145 2.80547C351.145 2.35527 351.509 1.98426 351.96 1.98426L359.875 1.98426C360.322 1.98426 360.686 2.3511 360.686 2.80547L360.686 3.47245L359.734 3.47245C359.189 3.47245 358.75 3.91848 358.75 4.46457C358.75 5.01065 359.193 5.45669 359.734 5.45669L360.686 5.45669L360.686 6.19036C360.686 6.64057 360.322 7.01157 359.875 7.01157L351.96 7.01157C351.513 7.01157 351.145 6.64474 351.145 6.19036L351.145 5.45669L351.584 5.45669C352.129 5.45669 352.568 5.01065 352.568 4.46457C352.568 3.91848 352.125 3.47245 351.584 3.47245L351.145 3.47245L351.145 2.80547ZM336.006 2.80547C336.006 2.35527 336.37 1.98426 336.82 1.98426L344.735 1.98426C345.182 1.98426 345.55 2.3511 345.55 2.80547L345.55 3.47245L344.682 3.47245C344.136 3.47245 343.697 3.91848 343.697 4.46457C343.697 5.01065 344.14 5.45669 344.682 5.45669L345.55 5.45669L345.55 6.19036C345.55 6.64057 345.186 7.01157 344.735 7.01157L336.82 7.01157C336.374 7.01157 336.006 6.64474 336.006 6.19036L336.006 5.45669L336.44 5.45669C336.986 5.45669 337.424 5.01065 337.424 4.46457C337.424 3.91848 336.982 3.47245 336.44 3.47245L336.006 3.47245L336.006 2.80547ZM320.895 2.80547C320.895 2.35527 321.259 1.98426 321.71 1.98426L329.625 1.98426C330.072 1.98426 330.435 2.3511 330.435 2.80547L330.435 3.47245L329.534 3.47245C328.988 3.47245 328.55 3.91849 328.55 4.46457C328.55 5.01065 328.992 5.45669 329.534 5.45669L330.435 5.45669L330.435 6.19036C330.435 6.64057 330.072 7.01157 329.625 7.01157L321.71 7.01157C321.263 7.01157 320.895 6.64474 320.895 6.19036L320.895 5.45669L321.329 5.45669C321.875 5.45669 322.314 5.01065 322.314 4.46457C322.314 3.91849 321.871 3.47245 321.329 3.47245L320.895 3.47245L320.895 2.80547ZM305.909 2.80548C305.909 2.35527 306.273 1.98426 306.723 1.98426L314.638 1.98426C315.085 1.98426 315.453 2.3511 315.453 2.80547L315.453 3.47245L314.427 3.47245C313.882 3.47245 313.443 3.91849 313.443 4.46457C313.443 5.01065 313.886 5.45669 314.427 5.45669L315.453 5.45669L315.453 6.19036C315.453 6.64057 315.089 7.01157 314.638 7.01157L306.723 7.01157C306.277 7.01157 305.909 6.64474 305.909 6.19036L305.909 5.45669L306.343 5.45669C306.889 5.45669 307.327 5.01065 307.327 4.46457C307.327 3.91849 306.885 3.47245 306.343 3.47245L305.909 3.47245L305.909 2.80548ZM290.765 2.80548C290.765 2.35527 291.129 1.98427 291.58 1.98427L299.495 1.98427C299.945 1.98427 300.309 2.3511 300.309 2.80548L300.309 3.47245L299.441 3.47245C298.895 3.47245 298.457 3.91849 298.457 4.46457C298.457 5.01065 298.899 5.45669 299.441 5.45669L300.309 5.45669L300.309 6.19036C300.309 6.64057 299.945 7.01157 299.495 7.01157L291.58 7.01157C291.133 7.01157 290.765 6.64474 290.765 6.19036L290.765 5.45669L291.199 5.45669C291.745 5.45669 292.183 5.01066 292.183 4.46457C292.183 3.91849 291.741 3.47245 291.199 3.47245L290.765 3.47245L290.765 2.80548ZM275.659 2.80548C275.659 2.35527 276.022 1.98427 276.473 1.98427L284.388 1.98427C284.835 1.98427 285.203 2.3511 285.203 2.80548L285.203 3.47245L284.301 3.47245C283.756 3.47245 283.317 3.91849 283.317 4.46457C283.317 5.01066 283.76 5.45669 284.301 5.45669L285.203 5.45669L285.203 6.19036C285.203 6.64057 284.839 7.01157 284.388 7.01157L276.473 7.01157C276.027 7.01157 275.659 6.64474 275.659 6.19036L275.659 5.45669L276.093 5.45669C276.639 5.45669 277.077 5.01066 277.077 4.46457C277.077 3.91849 276.634 3.47245 276.093 3.47245L275.659 3.47245L275.659 2.80548ZM259.907 2.80548C259.907 2.35527 260.271 1.98427 260.722 1.98427L268.637 1.98427C269.083 1.98427 269.451 2.3511 269.451 2.80548L269.451 3.47245L269.191 3.47245C268.645 3.47245 268.207 3.91849 268.207 4.46457C268.207 5.01066 268.649 5.45669 269.191 5.45669L269.451 5.45669L269.451 6.19036C269.451 6.64057 269.087 7.01158 268.637 7.01158L260.722 7.01158C260.275 7.01158 259.907 6.64474 259.907 6.19037L259.907 5.45669L260.341 5.45669C260.887 5.45669 261.325 5.01066 261.325 4.46457C261.325 3.91849 260.883 3.47245 260.341 3.47245L259.907 3.47245L259.907 2.80548ZM244.763 2.80548C244.763 2.35527 245.127 1.98427 245.578 1.98427L253.493 1.98427C253.94 1.98427 254.308 2.3511 254.308 2.80548L254.308 3.47245L253.439 3.47245C252.893 3.47245 252.455 3.91849 252.455 4.46457C252.455 5.01066 252.898 5.45669 253.439 5.45669L254.308 5.45669L254.308 6.19037C254.308 6.64057 253.944 7.01158 253.493 7.01158L245.578 7.01158C245.131 7.01158 244.763 6.64474 244.763 6.19037L244.763 5.4567L245.197 5.4567C245.743 5.4567 246.182 5.01066 246.182 4.46457C246.182 3.91849 245.739 3.47245 245.197 3.47245L244.763 3.47245L244.763 2.80548ZM229.657 2.80548C229.657 2.35527 230.021 1.98427 230.472 1.98427L238.387 1.98427C238.833 1.98427 239.201 2.3511 239.201 2.80548L239.201 3.47245L238.3 3.47245C237.754 3.47245 237.316 3.91849 237.316 4.46457C237.316 5.01066 237.758 5.4567 238.3 5.4567L239.201 5.4567L239.201 6.19037C239.201 6.64057 238.837 7.01158 238.387 7.01158L230.472 7.01158C230.025 7.01158 229.657 6.64474 229.657 6.19037L229.657 5.4567L230.091 5.4567C230.637 5.4567 231.075 5.01066 231.075 4.46457C231.075 3.91849 230.633 3.47245 230.091 3.47245L229.657 3.47245L229.657 2.80548ZM214.666 2.80548C214.666 2.35527 215.03 1.98427 215.481 1.98427L223.396 1.98427C223.843 1.98427 224.211 2.3511 224.211 2.80548L224.211 3.47245L223.185 3.47245C222.639 3.47245 222.201 3.91849 222.201 4.46457C222.201 5.01066 222.643 5.4567 223.185 5.4567L224.211 5.4567L224.211 6.19037C224.211 6.64057 223.847 7.01158 223.396 7.01158L215.481 7.01158C215.034 7.01158 214.666 6.64474 214.666 6.19037L214.666 5.4567L215.1 5.4567C215.646 5.4567 216.085 5.01066 216.085 4.46457C216.085 3.91849 215.642 3.47245 215.1 3.47245L214.666 3.47245L214.666 2.80548ZM199.527 2.80548C199.527 2.35527 199.891 1.98427 200.341 1.98427L208.256 1.98427C208.703 1.98427 209.071 2.3511 209.071 2.80548L209.071 3.47245L208.203 3.47245C207.657 3.47245 207.218 3.91849 207.218 4.46457C207.218 5.01066 207.661 5.4567 208.203 5.4567L209.071 5.4567L209.071 6.19037C209.071 6.64057 208.707 7.01158 208.256 7.01158L200.341 7.01158C199.895 7.01158 199.527 6.64474 199.527 6.19037L199.527 5.4567L199.961 5.4567C200.507 5.4567 200.945 5.01066 200.945 4.46458C200.945 3.91849 200.503 3.47245 199.961 3.47245L199.527 3.47245L199.527 2.80548ZM184.416 2.80548C184.416 2.35527 184.78 1.98427 185.231 1.98427L193.146 1.98427C193.592 1.98427 193.96 2.3511 193.96 2.80548L193.96 3.47245L193.059 3.47245C192.513 3.47245 192.075 3.91849 192.075 4.46458C192.075 5.01066 192.517 5.4567 193.059 5.4567L193.96 5.4567L193.96 6.19037C193.96 6.64057 193.597 7.01158 193.146 7.01158L185.231 7.01158C184.784 7.01158 184.416 6.64474 184.416 6.19037L184.416 5.4567L184.85 5.4567C185.396 5.4567 185.835 5.01066 185.835 4.46458C185.835 3.91849 185.392 3.47245 184.85 3.47245L184.416 3.47245L184.416 2.80548ZM168.702 2.80548C168.702 2.35527 169.066 1.98427 169.516 1.98427L177.431 1.98427C177.878 1.98427 178.246 2.35111 178.246 2.80548L178.246 3.47245L177.953 3.47245C177.407 3.47245 176.968 3.91849 176.968 4.46458C176.968 5.01066 177.411 5.4567 177.953 5.4567L178.246 5.4567L178.246 6.19037C178.246 6.64058 177.882 7.01158 177.431 7.01158L169.516 7.01158C169.07 7.01158 168.702 6.64474 168.702 6.19037L168.702 5.4567L169.136 5.4567C169.682 5.4567 170.12 5.01066 170.12 4.46458C170.12 3.91849 169.678 3.47245 169.136 3.47245L168.702 3.47245L168.702 2.80548ZM153.558 2.80548C153.558 2.35528 153.922 1.98427 154.373 1.98427L162.288 1.98427C162.734 1.98427 163.102 2.35111 163.102 2.80548L163.102 3.47245L162.234 3.47245C161.688 3.47245 161.25 3.91849 161.25 4.46458C161.25 5.01066 161.692 5.4567 162.234 5.4567L163.102 5.4567L163.102 6.19037C163.102 6.64058 162.739 7.01158 162.288 7.01158L154.373 7.01158C153.926 7.01158 153.558 6.64475 153.558 6.19037L153.558 5.4567L153.992 5.4567C154.538 5.4567 154.977 5.01066 154.977 4.46458C154.977 3.91849 154.534 3.47245 153.992 3.47245L153.558 3.47245L153.558 2.80548ZM138.452 2.80548C138.452 2.35528 138.816 1.98427 139.266 1.98427L147.181 1.98427C147.628 1.98427 147.996 2.35111 147.996 2.80548L147.996 3.47245L147.095 3.47245C146.549 3.47245 146.11 3.91849 146.11 4.46458C146.11 5.01066 146.553 5.4567 147.095 5.4567L147.996 5.4567L147.996 6.19037C147.996 6.64058 147.632 7.01158 147.181 7.01158L139.266 7.01158C138.82 7.01158 138.452 6.64475 138.452 6.19037L138.452 5.4567L138.886 5.4567C139.432 5.4567 139.87 5.01066 139.87 4.46458C139.87 3.91849 139.428 3.47246 138.886 3.47246L138.452 3.47246L138.452 2.80548ZM123.461 2.80548C123.461 2.35528 123.825 1.98427 124.276 1.98427L132.191 1.98427C132.637 1.98427 133.005 2.35111 133.005 2.80548L133.005 3.47246L131.98 3.47246C131.434 3.47246 130.996 3.91849 130.996 4.46458C130.996 5.01066 131.438 5.4567 131.98 5.4567L133.005 5.4567L133.005 6.19037C133.005 6.64058 132.641 7.01158 132.191 7.01158L124.276 7.01158C123.829 7.01158 123.461 6.64475 123.461 6.19037L123.461 5.4567L123.895 5.4567C124.441 5.4567 124.879 5.01066 124.879 4.46458C124.879 3.91849 124.437 3.47246 123.895 3.47246L123.461 3.47246L123.461 2.80548ZM108.321 2.80548C108.321 2.35528 108.685 1.98427 109.136 1.98427L117.051 1.98427C117.498 1.98427 117.866 2.35111 117.866 2.80548L117.866 3.47246L116.997 3.47246C116.452 3.47246 116.013 3.91849 116.013 4.46458C116.013 5.01066 116.456 5.4567 116.997 5.4567L117.866 5.4567L117.866 6.19037C117.866 6.64058 117.502 7.01158 117.051 7.01158L109.136 7.01158C108.689 7.01158 108.321 6.64475 108.321 6.19037L108.321 5.4567L108.756 5.4567C109.302 5.4567 109.74 5.01066 109.74 4.46458C109.74 3.91849 109.297 3.47246 108.756 3.47246L108.321 3.47246L108.321 2.80548ZM93.2109 2.80548C93.2109 2.35528 93.5748 1.98427 94.0255 1.98427L101.941 1.98427C102.387 1.98427 102.755 2.35111 102.755 2.80548L102.755 3.47246L101.854 3.47246C101.308 3.47246 100.87 3.9185 100.87 4.46458C100.87 5.01066 101.312 5.4567 101.854 5.4567L102.755 5.4567L102.755 6.19037C102.755 6.64058 102.391 7.01158 101.941 7.01158L94.0255 7.01158C93.5789 7.01158 93.2109 6.64475 93.2109 6.19037L93.2109 5.4567L93.6451 5.4567C94.1909 5.4567 94.6293 5.01066 94.6293 4.46458C94.6293 3.9185 94.1868 3.47246 93.6451 3.47246L93.2109 3.47246L93.2109 2.80548ZM77.4593 2.80549C77.4593 2.35528 77.8232 1.98427 78.274 1.98427L86.189 1.98427C86.6357 1.98427 87.0037 2.35111 87.0037 2.80548L87.0037 3.47246L86.7432 3.47246C86.1973 3.47246 85.759 3.9185 85.759 4.46458C85.759 5.01066 86.2014 5.4567 86.7432 5.4567L87.0037 5.4567L87.0037 6.19037C87.0037 6.64058 86.6398 7.01158 86.189 7.01158L78.274 7.01158C77.8273 7.01158 77.4593 6.64475 77.4593 6.19037L77.4593 5.4567L77.8935 5.4567C78.4394 5.4567 78.8777 5.01066 78.8777 4.46458C78.8777 3.9185 78.4352 3.47246 77.8935 3.47246L77.4593 3.47246L77.4593 2.80549ZM62.3198 2.80549C62.3198 2.35528 62.6837 1.98428 63.1344 1.98428L71.0495 1.98428C71.4961 1.98428 71.8642 2.35111 71.8642 2.80549L71.8642 3.47246L70.9957 3.47246C70.4499 3.47246 70.0115 3.9185 70.0115 4.46458C70.0115 5.01066 70.454 5.4567 70.9957 5.4567L71.8642 5.4567L71.8642 6.19037C71.8642 6.64058 71.5003 7.01158 71.0495 7.01158L63.1344 7.01158C62.6837 7.01158 62.3198 6.64475 62.3198 6.19037L62.3198 5.4567L62.754 5.4567C63.2999 5.4567 63.7382 5.01067 63.7382 4.46458C63.7382 3.9185 63.2957 3.47246 62.754 3.47246L62.3198 3.47246L62.3198 2.80549ZM47.2092 2.80549C47.2092 2.35528 47.5731 1.98428 48.0239 1.98428L55.9389 1.98428C56.3855 1.98428 56.7536 2.35111 56.7536 2.80549L56.7536 3.47246L55.8521 3.47246C55.3062 3.47246 54.8679 3.9185 54.8679 4.46458C54.8679 5.01067 55.3103 5.4567 55.8521 5.4567L56.7536 5.4567L56.7536 6.19037C56.7536 6.64058 56.3897 7.01158 55.9389 7.01158L48.0239 7.01158C47.5772 7.01158 47.2092 6.64475 47.2092 6.19037L47.2092 5.4567L47.6434 5.4567C48.1893 5.4567 48.6276 5.01067 48.6276 4.46458C48.6276 3.9185 48.1851 3.47246 47.6434 3.47246L47.2092 3.47246L47.2092 2.80549ZM32.2227 2.80549C32.2227 2.35528 32.5866 1.98428 33.0373 1.98428L40.9524 1.98428C41.399 1.98428 41.7671 2.35111 41.7671 2.80549L41.7671 3.47246L40.7456 3.47246C40.1998 3.47246 39.7614 3.9185 39.7614 4.46458C39.7614 5.01067 40.2039 5.4567 40.7456 5.4567L41.7671 5.4567L41.7671 6.19037C41.7671 6.64058 41.4032 7.01158 40.9524 7.01158L33.0373 7.01159C32.5907 7.01159 32.2227 6.64475 32.2227 6.19038L32.2227 5.4567L32.6569 5.4567C33.2028 5.4567 33.6411 5.01067 33.6411 4.46458C33.6411 3.9185 33.1986 3.47246 32.6569 3.47246L32.2227 3.47246L32.2227 2.80549ZM17.079 2.80549C17.079 2.35528 17.4429 1.98428 17.8937 1.98428L25.8087 1.98428C26.2554 1.98428 26.6234 2.35111 26.6234 2.80549L26.6234 3.47246L25.755 3.47246C25.2091 3.47246 24.7708 3.9185 24.7708 4.46458C24.7708 5.01067 25.2132 5.4567 25.755 5.4567L26.6234 5.4567L26.6234 6.19038C26.6234 6.64058 26.2595 7.01159 25.8087 7.01159L17.8937 7.01159C17.4429 7.01159 17.079 6.64475 17.079 6.19038L17.079 5.45671L17.5132 5.45671C18.0591 5.45671 18.4974 5.01067 18.4974 4.46458C18.4974 3.9185 18.055 3.47246 17.5132 3.47246L17.079 3.47246L17.079 2.80549ZM11.5128 6.19454C11.5128 6.64475 11.1489 7.01575 10.6982 7.01575L2.78309 7.01576C2.33647 7.01576 1.96843 6.64892 1.96843 6.19454L1.96843 2.80549C1.96843 2.35528 2.33234 1.98428 2.78309 1.98428L10.6982 1.98428C11.1448 1.98428 11.5128 2.35111 11.5128 2.80549L11.5128 3.47246L10.6113 3.47246C10.0654 3.47246 9.6271 3.9185 9.6271 4.46458C9.6271 5.01067 10.0696 5.45671 10.6113 5.45671L11.5128 5.45671L11.5128 6.19038L11.5128 6.19454Z" fill="#F06F2A"/>
<path d="M726.738 2.80549C726.738 1.25894 725.489 3.28237e-05 723.955 3.28932e-05L716.036 3.32524e-05C714.502 3.3322e-05 713.253 1.25894 713.253 2.80549L713.253 6.19455C713.253 7.74109 714.502 9 716.036 9L723.951 9C725.485 9 726.734 7.74109 726.734 6.19454L726.734 5.46087L728.355 5.46087L728.355 6.19454C728.355 7.74109 729.604 9 731.142 9L739.058 9C740.592 9 741.841 7.74109 741.841 6.19454L741.841 5.46087L743.499 5.46087L743.499 6.19454C743.499 7.74109 744.748 9 746.282 9L754.197 9C755.731 9 756.98 7.74109 756.98 6.19454L756.98 5.46087L758.481 5.46087L758.481 6.19454C758.481 7.74109 759.73 9 761.264 9L769.179 9C770.714 9 771.963 7.74109 771.963 6.19454L771.963 5.46087L773.584 5.46087L773.584 6.19454C773.584 7.74109 774.832 9 776.367 9L784.282 9C785.816 9 787.065 7.74109 787.065 6.19454L787.065 5.46087L788.723 5.46087L788.723 6.19454C788.723 7.74109 789.972 9 791.506 9L799.421 9C800.955 9 802.204 7.74108 802.204 6.19454L802.204 5.46087L804.471 5.46087L804.471 6.19454C804.471 7.74108 805.719 9 807.258 9L815.173 9C816.707 9 817.956 7.74108 817.956 6.19454L817.956 5.46087L819.577 5.46087L819.577 6.19454C819.577 7.74108 820.826 9 822.36 9L830.275 8.99999C831.809 8.99999 833.058 7.74108 833.058 6.19454L833.058 5.46087L834.717 5.46087L834.717 6.19454C834.717 7.74108 835.965 8.99999 837.5 8.99999L845.415 8.99999C846.949 8.99999 848.198 7.74108 848.198 6.19454L848.198 5.46087L849.699 5.46087L849.699 6.19454C849.699 7.74108 850.948 8.99999 852.482 8.99999L860.397 8.99999C861.931 8.99999 863.18 7.74108 863.18 6.19454L863.18 5.46087L864.801 5.46087L864.801 6.19454C864.801 7.74108 866.05 8.99999 867.584 8.99999L875.499 8.99999C877.034 8.99999 878.282 7.74108 878.282 6.19454L878.282 5.46087L879.941 5.46087L879.941 6.19454C879.941 7.74108 881.19 8.99999 882.724 8.99999L890.639 8.99999C892.173 8.99999 893.422 7.74108 893.422 6.19454L893.422 5.46087L895.655 5.46087L895.655 6.19454C895.655 7.74108 896.904 8.99999 898.438 8.99999L906.353 8.99999C907.887 8.99999 909.136 7.74108 909.136 6.19454L909.136 5.46087L910.757 5.46087L910.757 6.19454C910.757 7.74108 912.006 8.99999 913.54 8.99999L921.456 8.99999C922.99 8.99999 924.239 7.74108 924.239 6.19454L924.239 5.46087L925.897 5.46087L925.897 6.19454C925.897 7.74108 927.146 8.99999 928.68 8.99999L936.595 8.99999C938.129 8.99999 939.378 7.74108 939.378 6.19453L939.378 5.46086L940.879 5.46086L940.879 6.19453C940.879 7.74108 942.128 8.99999 943.662 8.99999L951.577 8.99999C953.112 8.99999 954.361 7.74108 954.361 6.19453L954.361 5.46086L955.982 5.46086L955.982 6.19453C955.982 7.74108 957.23 8.99999 958.765 8.99999L966.68 8.99999C968.214 8.99999 969.463 7.74108 969.463 6.19453L969.463 5.46086L971.121 5.46086L971.121 6.19453C971.121 7.74108 972.37 8.99999 973.904 8.99999L981.819 8.99999C983.354 8.99999 984.607 7.74108 984.607 6.19453L984.607 5.46086L986.873 5.46086L986.873 6.19453C986.873 7.74108 988.122 8.99999 989.656 8.99999L997.571 8.99999C999.105 8.99999 1000.35 7.74108 1000.35 6.19453L1000.35 5.46086L1001.98 5.46086L1001.98 6.19453C1001.98 7.74108 1003.22 8.99999 1004.76 8.99999L1012.68 8.99999C1014.21 8.99999 1015.46 7.74107 1015.46 6.19453L1015.46 5.46086L1017.12 5.46086L1017.12 6.19453C1017.12 7.74107 1018.37 8.99999 1019.9 8.99999L1027.82 8.99999C1029.35 8.99999 1030.6 7.74107 1030.6 6.19453L1030.6 5.46086L1032.1 5.46086L1032.1 6.19453C1032.1 7.74107 1033.35 8.99999 1034.89 8.99999L1042.8 8.99999C1044.34 8.99998 1045.59 7.74107 1045.59 6.19453L1045.59 5.46086L1047.21 5.46086L1047.21 6.19453C1047.21 7.74107 1048.46 8.99998 1049.99 8.99998L1057.91 8.99998C1059.44 8.99998 1060.69 7.74107 1060.69 6.19453L1060.69 5.46086L1062.34 5.46086L1062.34 6.19453C1062.34 7.74107 1063.59 8.99998 1065.13 8.99998L1073.04 8.99998C1074.58 8.99998 1075.82 7.74107 1075.82 6.19453L1075.82 5.46086L1077.4 5.46086L1077.4 6.19453C1077.4 7.74107 1078.64 8.99998 1080.18 8.99998L1088.09 8.99998C1089.63 8.99998 1090.88 7.74107 1090.88 6.19453L1090.88 5.46086L1092.5 5.46086L1092.5 6.19453C1092.5 7.74107 1093.75 8.99998 1095.28 8.99998L1103.2 8.99998C1104.73 8.99998 1105.98 7.74107 1105.98 6.19453L1105.98 5.46086L1107.64 5.46086L1107.64 6.19453C1107.64 7.74107 1108.89 8.99998 1110.42 8.99998L1118.34 8.99998C1119.87 8.99998 1121.12 7.74107 1121.12 6.19453L1121.12 5.46086L1122.62 5.46086L1122.62 6.19453C1122.62 7.74107 1123.87 8.99998 1125.41 8.99998L1133.32 8.99998C1134.86 8.99998 1136.11 7.74107 1136.11 6.19453L1136.11 5.46086L1137.73 5.46086L1137.73 6.19453C1137.73 7.74107 1138.98 8.99998 1140.51 8.99998L1148.43 8.99998C1149.96 8.99998 1151.21 7.74107 1151.21 6.19453L1151.21 5.46085L1152.87 5.46085L1152.87 6.19453C1152.87 7.74107 1154.12 8.99998 1155.65 8.99998L1163.57 8.99998C1165.1 8.99998 1166.36 7.74107 1166.36 6.19452L1166.36 5.46085L1168.62 5.46085L1168.62 6.19452C1168.62 7.74107 1169.87 8.99998 1171.4 8.99998L1179.32 8.99998C1180.85 8.99998 1182.1 7.74107 1182.1 6.19452L1182.1 5.46085L1183.73 5.46085L1183.73 6.19452C1183.73 7.74107 1184.98 8.99998 1186.51 8.99998L1194.43 8.99998C1195.96 8.99998 1197.21 7.74107 1197.21 6.19452L1197.21 5.46085L1198.87 5.46085L1198.87 6.19452C1198.87 7.74107 1200.12 8.99998 1201.65 8.99998L1209.57 8.99998C1211.1 8.99998 1212.35 7.74107 1212.35 6.19452L1212.35 5.46085L1213.85 5.46085L1213.85 6.19452C1213.85 7.74107 1215.1 8.99998 1216.64 8.99998L1224.55 8.99998C1226.09 8.99998 1227.34 7.74107 1227.34 6.19452L1227.34 5.46085L1228.96 5.46085L1228.96 6.19452C1228.96 7.74107 1230.21 8.99998 1231.74 8.99998L1239.65 8.99998C1241.19 8.99998 1242.44 7.74106 1242.44 6.19452L1242.44 5.46085L1244.1 5.46085L1244.1 6.19452C1244.1 7.74106 1245.34 8.99998 1246.88 8.99998L1254.79 8.99998C1256.33 8.99998 1257.58 7.74106 1257.58 6.19452L1257.58 5.46085L1259.81 5.46085L1259.81 6.19452C1259.81 7.74106 1261.06 8.99998 1262.6 8.99998L1270.51 8.99997C1272.05 8.99997 1273.3 7.74106 1273.3 6.19452L1273.3 5.46085L1274.92 5.46085L1274.92 6.19452C1274.92 7.74106 1276.17 8.99997 1277.7 8.99997L1285.62 8.99997C1287.15 8.99997 1288.4 7.74106 1288.4 6.19452L1288.4 5.46085L1290.06 5.46085L1290.06 6.19452C1290.06 7.74106 1291.31 8.99997 1292.84 8.99997L1300.76 8.99997C1302.29 8.99997 1303.55 7.74106 1303.55 6.19452L1303.55 5.46085L1305.05 5.46085L1305.05 6.19452C1305.05 7.74106 1306.3 8.99997 1307.83 8.99997L1315.75 8.99997C1317.28 8.99997 1318.53 7.74106 1318.53 6.19452L1318.53 5.46085L1320.15 5.46085L1320.15 6.19452C1320.15 7.74106 1321.4 8.99997 1322.94 8.99997L1330.85 8.99997C1332.39 8.99997 1333.64 7.74106 1333.64 6.19452L1333.64 5.46085L1335.29 5.46085L1335.29 6.19452C1335.29 7.74106 1336.54 8.99997 1338.08 8.99997L1346 8.99997C1347.53 8.99997 1348.78 7.74106 1348.78 6.19452L1348.78 5.46085L1351.05 5.46085L1351.05 6.19452C1351.05 7.74106 1352.3 8.99997 1353.83 8.99997L1361.75 8.99997C1363.28 8.99997 1364.53 7.74106 1364.53 6.19452L1364.53 5.46085L1366.15 5.46085L1366.15 6.19452C1366.15 7.74106 1367.4 8.99997 1368.93 8.99997L1376.85 8.99997C1378.38 8.99997 1379.63 7.74106 1379.63 6.19451L1379.63 5.46084L1381.29 5.46084L1381.29 6.19451C1381.29 7.74106 1382.54 8.99997 1384.07 8.99997L1391.99 8.99997C1393.52 8.99997 1394.77 7.74106 1394.77 6.19451L1394.77 5.46084L1396.27 5.46084L1396.27 6.19451C1396.27 7.74106 1397.52 8.99997 1399.06 8.99997L1406.97 8.99997C1408.51 8.99997 1409.76 7.74106 1409.76 6.19451L1409.76 5.46084L1411.38 5.46084L1411.38 6.19451C1411.38 7.74106 1412.63 8.99997 1414.16 8.99997L1422.08 8.99997C1423.61 8.99997 1424.86 7.74106 1424.86 6.19451L1424.86 5.46084L1426.52 5.46084L1426.52 6.19451C1426.52 7.74106 1427.77 8.99997 1429.3 8.99997L1437.22 8.99997C1438.75 8.99997 1440 7.74106 1440 6.19451L1440 2.80546C1440 1.25891 1438.75 4.76853e-07 1437.22 5.46428e-07L1429.3 9.05383e-07C1427.77 9.74959e-07 1426.52 1.25891 1426.52 2.80546L1426.52 3.47243L1424.86 3.47243L1424.86 2.80546C1424.86 1.25891 1423.61 1.16344e-06 1422.08 1.23301e-06L1414.16 1.59197e-06C1412.63 1.66154e-06 1411.38 1.25891 1411.38 2.80546L1411.38 3.47243L1409.76 3.47243L1409.76 2.80546C1409.76 1.25891 1408.51 1.84834e-06 1406.97 1.9181e-06L1399.06 2.27705e-06C1397.52 2.34663e-06 1396.27 1.25891 1396.27 2.80546L1396.27 3.47243L1394.77 3.47243L1394.77 2.80546C1394.77 1.25891 1393.52 2.52798e-06 1391.99 2.59756e-06L1384.07 2.95651e-06C1382.54 3.02609e-06 1381.29 1.25891 1381.29 2.80546L1381.29 3.47243L1379.63 3.47243L1379.63 2.80546C1379.63 1.25891 1378.38 3.21457e-06 1376.85 3.28415e-06L1368.93 3.6431e-06C1367.4 3.71268e-06 1366.15 1.25892 1366.15 2.80546L1366.15 3.47243L1364.53 3.47243L1364.53 2.80546C1364.53 1.25892 1363.28 3.89947e-06 1361.75 3.96905e-06L1353.83 4.328e-06C1352.3 4.39758e-06 1351.05 1.25892 1351.05 2.80546L1351.05 3.47243L1348.78 3.47243L1348.78 2.80546C1348.78 1.25892 1347.53 4.61362e-06 1346 4.68339e-06L1338.08 5.04234e-06C1336.55 5.11192e-06 1335.29 1.25892 1335.29 2.80546L1335.29 3.47243L1333.64 3.47243L1333.64 2.80546C1333.64 1.25892 1332.39 5.3004e-06 1330.85 5.37016e-06L1322.94 5.72911e-06C1321.4 5.79869e-06 1320.15 1.25892 1320.15 2.80546L1320.15 3.47243L1318.53 3.47243L1318.53 2.80546C1318.53 1.25892 1317.28 5.98548e-06 1315.75 6.05506e-06L1307.83 6.41401e-06C1306.3 6.48359e-06 1305.05 1.25892 1305.05 2.80546L1305.05 3.47243L1303.55 3.47243L1303.55 2.80546C1303.55 1.25892 1302.3 6.66513e-06 1300.76 6.7349e-06L1292.84 7.09385e-06C1291.31 7.16343e-06 1290.06 1.25892 1290.06 2.80546L1290.06 3.47244L1288.4 3.47244L1288.4 2.80546C1288.4 1.25892 1287.15 7.35191e-06 1285.62 7.42148e-06L1277.7 7.78044e-06C1276.17 7.85001e-06 1274.92 1.25892 1274.92 2.80546L1274.92 3.47244L1273.3 3.47244L1273.3 2.80546C1273.3 1.25892 1272.05 8.0368e-06 1270.51 8.10657e-06L1262.6 8.46552e-06C1261.06 8.5351e-06 1259.81 1.25892 1259.81 2.80546L1259.81 3.47244L1257.58 3.47244L1257.58 2.80546C1257.58 1.25892 1256.33 8.74964e-06 1254.79 8.81941e-06L1246.88 9.17836e-06C1245.34 9.24794e-06 1244.1 1.25892 1244.1 2.80546L1244.1 3.47244L1242.44 3.47244L1242.44 2.80546C1242.44 1.25892 1241.19 9.43642e-06 1239.65 9.50599e-06L1231.74 9.86495e-06C1230.21 9.93452e-06 1228.96 1.25892 1228.96 2.80547L1228.96 3.47244L1227.34 3.47244L1227.34 2.80547C1227.34 1.25892 1226.09 1.01213e-05 1224.55 1.01909e-05L1216.64 1.05498e-05C1215.1 1.06194e-05 1213.85 1.25892 1213.85 2.80547L1213.85 3.47244L1212.35 3.47244L1212.35 2.80547C1212.35 1.25892 1211.1 1.08008e-05 1209.57 1.08705e-05L1201.65 1.12295e-05C1200.12 1.12991e-05 1198.87 1.25892 1198.87 2.80547L1198.87 3.47244L1197.21 3.47244L1197.21 2.80547C1197.21 1.25892 1195.96 1.14875e-05 1194.43 1.15571e-05L1186.51 1.19161e-05C1184.98 1.19857e-05 1183.73 1.25892 1183.73 2.80547L1183.73 3.47244L1182.1 3.47244L1182.1 2.80547C1182.1 1.25892 1180.85 1.21726e-05 1179.32 1.22422e-05L1171.4 1.26012e-05C1169.87 1.26707e-05 1168.62 1.25892 1168.62 2.80547L1168.62 3.47244L1166.36 3.47244L1166.36 2.80547C1166.36 1.25892 1165.11 1.28868e-05 1163.57 1.29566e-05L1155.65 1.33155e-05C1154.12 1.33851e-05 1152.87 1.25893 1152.87 2.80547L1152.87 3.47244L1151.21 3.47244L1151.21 2.80547C1151.21 1.25893 1149.96 1.35736e-05 1148.43 1.36431e-05L1140.51 1.40021e-05C1138.98 1.40717e-05 1137.73 1.25893 1137.73 2.80547L1137.73 3.47244L1136.11 3.47244L1136.11 2.80547C1136.11 1.25893 1134.86 1.42585e-05 1133.32 1.43282e-05L1125.41 1.46872e-05C1123.87 1.47568e-05 1122.62 1.25893 1122.62 2.80547L1122.62 3.47244L1121.12 3.47244L1121.12 2.80547C1121.12 1.25893 1119.87 1.49381e-05 1118.34 1.50079e-05L1110.42 1.53668e-05C1108.89 1.54364e-05 1107.64 1.25893 1107.64 2.80547L1107.64 3.47244L1105.98 3.47244L1105.98 2.80547C1105.98 1.25893 1104.73 1.56249e-05 1103.2 1.56945e-05L1095.28 1.60534e-05C1093.75 1.6123e-05 1092.5 1.25893 1092.5 2.80547L1092.5 3.47244L1090.88 3.47244L1090.88 2.80547C1090.88 1.25893 1089.63 1.63098e-05 1088.09 1.63794e-05L1080.18 1.67383e-05C1078.64 1.68079e-05 1077.4 1.25893 1077.4 2.80547L1077.4 3.47244L1075.82 3.47244L1075.82 2.80547C1075.82 1.25893 1074.58 1.69924e-05 1073.04 1.7062e-05L1065.13 1.7421e-05C1063.59 1.74905e-05 1062.34 1.25893 1062.34 2.80547L1062.34 3.47245L1060.69 3.47245L1060.69 2.80547C1060.69 1.25893 1059.44 1.76788e-05 1057.91 1.77484e-05L1049.99 1.81074e-05C1048.46 1.81769e-05 1047.21 1.25893 1047.21 2.80547L1047.21 3.47245L1045.59 3.47245L1045.59 2.80547C1045.59 1.25893 1044.34 1.83637e-05 1042.8 1.84333e-05L1034.89 1.87923e-05C1033.35 1.88618e-05 1032.1 1.25893 1032.1 2.80547L1032.1 3.47245L1030.6 3.47245L1030.6 2.80547C1030.6 1.25893 1029.35 1.90434e-05 1027.82 1.9113e-05L1019.9 1.94719e-05C1018.37 1.95415e-05 1017.12 1.25893 1017.12 2.80547L1017.12 3.47245L1015.46 3.47245L1015.46 2.80547C1015.46 1.25893 1014.22 1.97298e-05 1012.68 1.97995e-05L1004.76 2.01585e-05C1003.23 2.02281e-05 1001.98 1.25893 1001.98 2.80548L1001.98 3.47245L1000.35 3.47245L1000.35 2.80548C1000.35 1.25893 999.105 2.0415e-05 997.571 2.04846e-05L989.656 2.08436e-05C988.122 2.09132e-05 986.873 1.25893 986.873 2.80548L986.873 3.47245L984.607 3.47245L984.607 2.80548C984.607 1.25893 983.358 2.11292e-05 981.819 2.1199e-05L973.904 2.15579e-05C972.37 2.16275e-05 971.121 1.25893 971.121 2.80548L971.121 3.47245L969.463 3.47245L969.463 2.80548C969.463 1.25893 968.214 2.1816e-05 966.68 2.18855e-05L958.765 2.22445e-05C957.23 2.23141e-05 955.982 1.25893 955.982 2.80548L955.982 3.47245L954.361 3.47245L954.361 2.80548C954.361 1.25893 953.112 2.25009e-05 951.577 2.25704e-05L943.662 2.29294e-05C942.128 2.2999e-05 940.879 1.25893 940.879 2.80548L940.879 3.47245L939.378 3.47245L939.378 2.80548C939.378 1.25893 938.129 2.31803e-05 936.595 2.32499e-05L928.68 2.36089e-05C927.146 2.36784e-05 925.897 1.25894 925.897 2.80548L925.897 3.47245L924.239 3.47245L924.239 2.80548C924.239 1.25894 922.99 2.38669e-05 921.456 2.39365e-05L913.54 2.42954e-05C912.006 2.4365e-05 910.757 1.25894 910.757 2.80548L910.757 3.47245L909.136 3.47245L909.136 2.80548C909.136 1.25894 907.887 2.45518e-05 906.353 2.46214e-05L898.438 2.49803e-05C896.904 2.50499e-05 895.655 1.25894 895.655 2.80548L895.655 3.47245L893.422 3.47245L893.422 2.80548C893.422 1.25894 892.173 2.52645e-05 890.639 2.5334e-05L882.724 2.5693e-05C881.19 2.57626e-05 879.941 1.25894 879.941 2.80548L879.941 3.47245L878.282 3.47245L878.282 2.80548C878.282 1.25894 877.034 2.59511e-05 875.499 2.60206e-05L867.584 2.63796e-05C866.05 2.64492e-05 864.801 1.25894 864.801 2.80548L864.801 3.47245L863.18 3.47245L863.18 2.80548C863.18 1.25894 861.931 2.6636e-05 860.397 2.67055e-05L852.482 2.70645e-05C850.948 2.71341e-05 849.699 1.25894 849.699 2.80548L849.699 3.47246L848.198 3.47246L848.198 2.80548C848.198 1.25894 846.949 2.73154e-05 845.415 2.7385e-05L837.5 2.77439e-05C835.965 2.78135e-05 834.717 1.25894 834.717 2.80548L834.717 3.47246L833.058 3.47246L833.058 2.80548C833.058 1.25894 831.809 2.8002e-05 830.275 2.80716e-05L822.36 2.84305e-05C820.826 2.85001e-05 819.577 1.25894 819.577 2.80548L819.577 3.47246L817.956 3.47246L817.956 2.80548C817.956 1.25894 816.707 2.86869e-05 815.173 2.87565e-05L807.258 2.91154e-05C805.724 2.9185e-05 804.471 1.25894 804.471 2.80548L804.471 3.47246L802.204 3.47246L802.204 2.80548C802.204 1.25894 800.955 2.94012e-05 799.421 2.94708e-05L791.506 2.98298e-05C789.972 2.98993e-05 788.723 1.25894 788.723 2.80549L788.723 3.47246L787.065 3.47246L787.065 2.80549C787.065 1.25894 785.816 3.00878e-05 784.282 3.01574e-05L776.367 3.05164e-05C774.832 3.05859e-05 773.584 1.25894 773.584 2.80549L773.584 3.47246L771.963 3.47246L771.963 2.80549C771.963 1.25894 770.714 3.07727e-05 769.179 3.08423e-05L761.264 3.12013e-05C759.73 3.12708e-05 758.481 1.25894 758.481 2.80549L758.481 3.47246L756.98 3.47246L756.98 2.80549C756.98 1.25894 755.731 3.14522e-05 754.197 3.15218e-05L746.282 3.18807e-05C744.748 3.19503e-05 743.499 1.25894 743.499 2.80549L743.499 3.47246L741.841 3.47246L741.841 2.80549C741.841 1.25894 740.592 3.21388e-05 739.058 3.22083e-05L731.142 3.25673e-05C729.608 3.26369e-05 728.355 1.25894 728.355 2.80549L728.355 3.47246L726.734 3.47246L726.734 2.80549L726.738 2.80549ZM1428.63 2.80546C1428.63 2.35525 1429 1.98425 1429.44 1.98425L1437.36 1.98425C1437.8 1.98425 1438.17 2.35108 1438.17 2.80546L1438.17 6.19451C1438.17 6.64472 1437.81 7.01572 1437.36 7.01572L1429.44 7.01572C1429 7.01572 1428.63 6.64889 1428.63 6.19451L1428.63 5.46084L1429.07 5.46084C1429.61 5.46084 1430.05 5.0148 1430.05 4.46872C1430.05 3.92264 1429.61 3.4766 1429.07 3.4766L1428.63 3.4766L1428.63 2.80962L1428.63 2.80546ZM1413.49 2.80546C1413.49 2.35525 1413.86 1.98425 1414.3 1.98425L1422.22 1.98425C1422.66 1.98425 1423.03 2.35108 1423.03 2.80546L1423.03 3.47243L1422.16 3.47243C1421.61 3.47243 1421.18 3.91847 1421.18 4.46455C1421.18 5.01064 1421.62 5.45667 1422.16 5.45667L1423.03 5.45667L1423.03 6.19034C1423.03 6.64055 1422.66 7.01155 1422.22 7.01155L1414.3 7.01155C1413.86 7.01156 1413.49 6.64472 1413.49 6.19034L1413.49 5.45667L1413.93 5.45667C1414.47 5.45667 1414.91 5.01064 1414.91 4.46455C1414.91 3.91847 1414.47 3.47243 1413.93 3.47243L1413.49 3.47243L1413.49 2.80546ZM1398.38 2.80546C1398.38 2.35525 1398.75 1.98425 1399.19 1.98425L1407.11 1.98425C1407.56 1.98425 1407.92 2.35108 1407.92 2.80546L1407.92 3.47243L1407.02 3.47243C1406.47 3.47243 1406.04 3.91847 1406.04 4.46455C1406.04 5.01064 1406.48 5.45667 1407.02 5.45667L1407.92 5.45667L1407.92 6.19035C1407.92 6.64055 1407.56 7.01156 1407.11 7.01156L1399.19 7.01156C1398.75 7.01156 1398.38 6.64472 1398.38 6.19035L1398.38 5.45667L1398.82 5.45667C1399.36 5.45667 1399.8 5.01064 1399.8 4.46455C1399.8 3.91847 1399.36 3.47243 1398.82 3.47243L1398.38 3.47243L1398.38 2.80546ZM1383.4 2.80546C1383.4 2.35525 1383.76 1.98425 1384.21 1.98425L1392.12 1.98425C1392.57 1.98425 1392.94 2.35108 1392.94 2.80546L1392.94 3.47243L1391.91 3.47243C1391.37 3.47243 1390.93 3.91847 1390.93 4.46455C1390.93 5.01064 1391.37 5.45668 1391.91 5.45668L1392.94 5.45668L1392.94 6.19035C1392.94 6.64055 1392.57 7.01156 1392.12 7.01156L1384.21 7.01156C1383.76 7.01156 1383.4 6.64472 1383.4 6.19035L1383.4 5.45668L1383.83 5.45668C1384.38 5.45668 1384.81 5.01064 1384.81 4.46455C1384.81 3.91847 1384.37 3.47243 1383.83 3.47243L1383.4 3.47243L1383.4 2.80546ZM1368.25 2.80546C1368.25 2.35525 1368.62 1.98425 1369.07 1.98425L1376.98 1.98425C1377.43 1.98425 1377.79 2.35108 1377.79 2.80546L1377.79 3.47243L1376.92 3.47243C1376.38 3.47243 1375.94 3.91847 1375.94 4.46455C1375.94 5.01064 1376.38 5.45668 1376.92 5.45668L1377.79 5.45668L1377.79 6.19035C1377.79 6.64055 1377.43 7.01156 1376.98 7.01156L1369.07 7.01156C1368.62 7.01156 1368.25 6.64472 1368.25 6.19035L1368.25 5.45668L1368.69 5.45668C1369.23 5.45668 1369.67 5.01064 1369.67 4.46455C1369.67 3.91847 1369.23 3.47243 1368.69 3.47243L1368.25 3.47243L1368.25 2.80546ZM1353.14 2.80546C1353.14 2.35525 1353.5 1.98425 1353.95 1.98425L1361.87 1.98425C1362.31 1.98425 1362.68 2.35108 1362.68 2.80546L1362.68 3.47243L1361.78 3.47243C1361.23 3.47243 1360.8 3.91847 1360.8 4.46455C1360.8 5.01064 1361.24 5.45668 1361.78 5.45668L1362.68 5.45668L1362.68 6.19035C1362.68 6.64055 1362.32 7.01156 1361.87 7.01156L1353.95 7.01156C1353.5 7.01156 1353.14 6.64472 1353.14 6.19035L1353.14 5.45668L1353.58 5.45668C1354.12 5.45668 1354.56 5.01064 1354.56 4.46455C1354.56 3.91847 1354.12 3.47243 1353.58 3.47243L1353.14 3.47243L1353.14 2.80546ZM1337.39 2.80546C1337.39 2.35525 1337.76 1.98425 1338.21 1.98425L1346.12 1.98425C1346.57 1.98425 1346.94 2.35108 1346.94 2.80546L1346.94 3.47243L1346.68 3.47243C1346.13 3.47243 1345.69 3.91847 1345.69 4.46456C1345.69 5.01064 1346.14 5.45668 1346.68 5.45668L1346.94 5.45668L1346.94 6.19035C1346.94 6.64055 1346.57 7.01156 1346.12 7.01156L1338.21 7.01156C1337.76 7.01156 1337.39 6.64472 1337.39 6.19035L1337.39 5.45668L1337.83 5.45668C1338.37 5.45668 1338.81 5.01064 1338.81 4.46456C1338.81 3.91847 1338.37 3.47243 1337.83 3.47243L1337.39 3.47243L1337.39 2.80546ZM1322.25 2.80546C1322.25 2.35525 1322.61 1.98425 1323.06 1.98425L1330.98 1.98425C1331.43 1.98425 1331.79 2.35109 1331.79 2.80546L1331.79 3.47243L1330.92 3.47243C1330.38 3.47243 1329.94 3.91847 1329.94 4.46456C1329.94 5.01064 1330.38 5.45668 1330.92 5.45668L1331.79 5.45668L1331.79 6.19035C1331.79 6.64056 1331.43 7.01156 1330.98 7.01156L1323.06 7.01156C1322.61 7.01156 1322.25 6.64472 1322.25 6.19035L1322.25 5.45668L1322.68 5.45668C1323.23 5.45668 1323.67 5.01064 1323.67 4.46456C1323.67 3.91847 1323.23 3.47243 1322.68 3.47243L1322.25 3.47243L1322.25 2.80546ZM1307.14 2.80546C1307.14 2.35525 1307.51 1.98425 1307.96 1.98425L1315.87 1.98425C1316.32 1.98425 1316.69 2.35109 1316.69 2.80546L1316.69 3.47243L1315.79 3.47243C1315.24 3.47243 1314.8 3.91847 1314.8 4.46456C1314.8 5.01064 1315.24 5.45668 1315.79 5.45668L1316.69 5.45668L1316.69 6.19035C1316.69 6.64056 1316.32 7.01156 1315.87 7.01156L1307.96 7.01156C1307.51 7.01156 1307.14 6.64472 1307.14 6.19035L1307.14 5.45668L1307.58 5.45668C1308.12 5.45668 1308.56 5.01064 1308.56 4.46456C1308.56 3.91847 1308.12 3.47243 1307.58 3.47243L1307.14 3.47243L1307.14 2.80546ZM1292.15 2.80546C1292.15 2.35526 1292.52 1.98425 1292.97 1.98425L1300.88 1.98425C1301.33 1.98425 1301.7 2.35109 1301.7 2.80546L1301.7 3.47243L1300.68 3.47243C1300.13 3.47243 1299.69 3.91847 1299.69 4.46456C1299.69 5.01064 1300.13 5.45668 1300.68 5.45668L1301.7 5.45668L1301.7 6.19035C1301.7 6.64056 1301.33 7.01156 1300.88 7.01156L1292.97 7.01156C1292.52 7.01156 1292.15 6.64473 1292.15 6.19035L1292.15 5.45668L1292.59 5.45668C1293.13 5.45668 1293.57 5.01064 1293.57 4.46456C1293.57 3.91847 1293.13 3.47243 1292.59 3.47243L1292.15 3.47243L1292.15 2.80546ZM1277.01 2.80546C1277.01 2.35526 1277.38 1.98425 1277.82 1.98425L1285.74 1.98425C1286.19 1.98425 1286.55 2.35109 1286.55 2.80546L1286.55 3.47244L1285.69 3.47244C1285.14 3.47244 1284.7 3.91847 1284.7 4.46456C1284.7 5.01064 1285.14 5.45668 1285.69 5.45668L1286.55 5.45668L1286.55 6.19035C1286.55 6.64056 1286.19 7.01156 1285.74 7.01156L1277.82 7.01156C1277.38 7.01156 1277.01 6.64473 1277.01 6.19035L1277.01 5.45668L1277.45 5.45668C1277.99 5.45668 1278.43 5.01064 1278.43 4.46456C1278.43 3.91847 1277.99 3.47244 1277.45 3.47244L1277.01 3.47244L1277.01 2.80546ZM1261.9 2.80546C1261.9 2.35526 1262.27 1.98425 1262.72 1.98425L1270.63 1.98425C1271.08 1.98425 1271.45 2.35109 1271.45 2.80546L1271.45 3.47244L1270.55 3.47244C1270 3.47244 1269.56 3.91847 1269.56 4.46456C1269.56 5.01064 1270 5.45668 1270.55 5.45668L1271.45 5.45668L1271.45 6.19035C1271.45 6.64056 1271.08 7.01156 1270.63 7.01156L1262.72 7.01156C1262.27 7.01156 1261.9 6.64473 1261.9 6.19035L1261.9 5.45668L1262.34 5.45668C1262.88 5.45668 1263.32 5.01064 1263.32 4.46456C1263.32 3.91847 1262.88 3.47244 1262.34 3.47244L1261.9 3.47244L1261.9 2.80546ZM1246.19 2.80546C1246.19 2.35526 1246.55 1.98425 1247 1.98425L1254.92 1.98425C1255.37 1.98425 1255.73 2.35109 1255.73 2.80546L1255.73 3.47244L1255.44 3.47244C1254.89 3.47244 1254.45 3.91847 1254.45 4.46456C1254.45 5.01064 1254.9 5.45668 1255.44 5.45668L1255.73 5.45668L1255.73 6.19035C1255.73 6.64056 1255.37 7.01156 1254.92 7.01156L1247 7.01156C1246.56 7.01156 1246.19 6.64473 1246.19 6.19035L1246.19 5.45668L1246.62 5.45668C1247.17 5.45668 1247.61 5.01064 1247.61 4.46456C1247.61 3.91848 1247.16 3.47244 1246.62 3.47244L1246.19 3.47244L1246.19 2.80546ZM1231.04 2.80547C1231.04 2.35526 1231.41 1.98425 1231.86 1.98425L1239.77 1.98425C1240.22 1.98425 1240.58 2.35109 1240.58 2.80546L1240.58 3.47244L1239.71 3.47244C1239.17 3.47244 1238.73 3.91848 1238.73 4.46456C1238.73 5.01064 1239.17 5.45668 1239.71 5.45668L1240.58 5.45668L1240.58 6.19035C1240.58 6.64056 1240.22 7.01156 1239.77 7.01156L1231.86 7.01156C1231.41 7.01156 1231.04 6.64473 1231.04 6.19035L1231.04 5.45668L1231.48 5.45668C1232.02 5.45668 1232.46 5.01064 1232.46 4.46456C1232.46 3.91848 1232.02 3.47244 1231.48 3.47244L1231.04 3.47244L1231.04 2.80547ZM1215.93 2.80547C1215.93 2.35526 1216.3 1.98426 1216.75 1.98426L1224.66 1.98426C1225.11 1.98425 1225.47 2.35109 1225.47 2.80547L1225.47 3.47244L1224.57 3.47244C1224.03 3.47244 1223.59 3.91848 1223.59 4.46456C1223.59 5.01064 1224.03 5.45668 1224.57 5.45668L1225.47 5.45668L1225.47 6.19035C1225.47 6.64056 1225.11 7.01156 1224.66 7.01156L1216.75 7.01156C1216.3 7.01156 1215.93 6.64473 1215.93 6.19035L1215.93 5.45668L1216.37 5.45668C1216.91 5.45668 1217.35 5.01064 1217.35 4.46456C1217.35 3.91848 1216.91 3.47244 1216.37 3.47244L1215.93 3.47244L1215.93 2.80547ZM1200.95 2.80547C1200.95 2.35526 1201.31 1.98426 1201.76 1.98426L1209.67 1.98426C1210.12 1.98426 1210.49 2.35109 1210.49 2.80547L1210.49 3.47244L1209.46 3.47244C1208.92 3.47244 1208.48 3.91848 1208.48 4.46456C1208.48 5.01065 1208.92 5.45668 1209.46 5.45668L1210.49 5.45668L1210.49 6.19035C1210.49 6.64056 1210.12 7.01156 1209.67 7.01156L1201.76 7.01156C1201.31 7.01156 1200.95 6.64473 1200.95 6.19035L1200.95 5.45668L1201.38 5.45668C1201.93 5.45668 1202.37 5.01065 1202.37 4.46456C1202.37 3.91848 1201.92 3.47244 1201.38 3.47244L1200.95 3.47244L1200.95 2.80547ZM1185.8 2.80547C1185.8 2.35526 1186.17 1.98426 1186.61 1.98426L1194.53 1.98426C1194.98 1.98426 1195.34 2.35109 1195.34 2.80547L1195.34 3.47244L1194.47 3.47244C1193.93 3.47244 1193.49 3.91848 1193.49 4.46456C1193.49 5.01065 1193.93 5.45668 1194.47 5.45668L1195.34 5.45668L1195.34 6.19035C1195.34 6.64056 1194.98 7.01156 1194.53 7.01156L1186.61 7.01157C1186.17 7.01157 1185.8 6.64473 1185.8 6.19036L1185.8 5.45668L1186.24 5.45668C1186.78 5.45668 1187.22 5.01065 1187.22 4.46456C1187.22 3.91848 1186.78 3.47244 1186.24 3.47244L1185.8 3.47244L1185.8 2.80547ZM1170.7 2.80547C1170.7 2.35526 1171.06 1.98426 1171.51 1.98426L1179.43 1.98426C1179.87 1.98426 1180.24 2.35109 1180.24 2.80547L1180.24 3.47244L1179.34 3.47244C1178.79 3.47244 1178.35 3.91848 1178.35 4.46456C1178.35 5.01065 1178.79 5.45668 1179.34 5.45668L1180.24 5.45668L1180.24 6.19036C1180.24 6.64056 1179.87 7.01157 1179.43 7.01157L1171.51 7.01157C1171.07 7.01157 1170.7 6.64473 1170.7 6.19036L1170.7 5.45669L1171.13 5.45669C1171.68 5.45669 1172.12 5.01065 1172.12 4.46456C1172.12 3.91848 1171.67 3.47244 1171.13 3.47244L1170.7 3.47244L1170.7 2.80547ZM1154.95 2.80547C1154.95 2.35526 1155.31 1.98426 1155.76 1.98426L1163.67 1.98426C1164.12 1.98426 1164.49 2.35109 1164.49 2.80547L1164.49 3.47244L1164.23 3.47244C1163.68 3.47244 1163.24 3.91848 1163.24 4.46456C1163.24 5.01065 1163.68 5.45669 1164.23 5.45669L1164.49 5.45669L1164.49 6.19036C1164.49 6.64056 1164.12 7.01157 1163.67 7.01157L1155.76 7.01157C1155.31 7.01157 1154.95 6.64473 1154.95 6.19036L1154.95 5.45669L1155.38 5.45669C1155.93 5.45669 1156.36 5.01065 1156.36 4.46456C1156.36 3.91848 1155.92 3.47244 1155.38 3.47244L1154.95 3.47244L1154.95 2.80547ZM1139.81 2.80547C1139.81 2.35526 1140.17 1.98426 1140.62 1.98426L1148.53 1.98426C1148.98 1.98426 1149.34 2.35109 1149.34 2.80547L1149.34 3.47244L1148.47 3.47244C1147.93 3.47244 1147.49 3.91848 1147.49 4.46456C1147.49 5.01065 1147.93 5.45669 1148.47 5.45669L1149.34 5.45669L1149.34 6.19036C1149.34 6.64056 1148.98 7.01157 1148.53 7.01157L1140.62 7.01157C1140.17 7.01157 1139.81 6.64473 1139.81 6.19036L1139.81 5.45669L1140.24 5.45669C1140.79 5.45669 1141.22 5.01065 1141.22 4.46456C1141.22 3.91848 1140.78 3.47244 1140.24 3.47244L1139.81 3.47244L1139.81 2.80547ZM1124.7 2.80547C1124.7 2.35526 1125.06 1.98426 1125.51 1.98426L1133.42 1.98426C1133.87 1.98426 1134.24 2.35109 1134.24 2.80547L1134.24 3.47244L1133.33 3.47244C1132.79 3.47244 1132.35 3.91848 1132.35 4.46456C1132.35 5.01065 1132.79 5.45669 1133.33 5.45669L1134.24 5.45669L1134.24 6.19036C1134.24 6.64056 1133.87 7.01157 1133.42 7.01157L1125.51 7.01157C1125.06 7.01157 1124.7 6.64473 1124.7 6.19036L1124.7 5.45669L1125.13 5.45669C1125.68 5.45669 1126.11 5.01065 1126.11 4.46457C1126.11 3.91848 1125.67 3.47244 1125.13 3.47244L1124.7 3.47244L1124.7 2.80547ZM1109.71 2.80547C1109.71 2.35526 1110.07 1.98426 1110.52 1.98426L1118.43 1.98426C1118.88 1.98426 1119.25 2.35109 1119.25 2.80547L1119.25 3.47244L1118.22 3.47244C1117.68 3.47244 1117.24 3.91848 1117.24 4.46457C1117.24 5.01065 1117.68 5.45669 1118.22 5.45669L1119.25 5.45669L1119.25 6.19036C1119.25 6.64056 1118.89 7.01157 1118.43 7.01157L1110.52 7.01157C1110.07 7.01157 1109.71 6.64473 1109.71 6.19036L1109.71 5.45669L1110.14 5.45669C1110.69 5.45669 1111.13 5.01065 1111.13 4.46457C1111.13 3.91848 1110.69 3.47244 1110.14 3.47244L1109.71 3.47244L1109.71 2.80547ZM1094.57 2.80547C1094.57 2.35526 1094.93 1.98426 1095.38 1.98426L1103.3 1.98426C1103.74 1.98426 1104.11 2.3511 1104.11 2.80547L1104.11 3.47244L1103.24 3.47244C1102.69 3.47244 1102.25 3.91848 1102.25 4.46457C1102.25 5.01065 1102.7 5.45669 1103.24 5.45669L1104.11 5.45669L1104.11 6.19036C1104.11 6.64057 1103.74 7.01157 1103.3 7.01157L1095.38 7.01157C1094.93 7.01157 1094.57 6.64473 1094.57 6.19036L1094.57 5.45669L1095 5.45669C1095.55 5.45669 1095.98 5.01065 1095.98 4.46457C1095.98 3.91848 1095.54 3.47244 1095 3.47244L1094.57 3.47244L1094.57 2.80547ZM1079.46 2.80547C1079.46 2.35527 1079.82 1.98426 1080.27 1.98426L1088.18 1.98426C1088.63 1.98426 1089 2.3511 1089 2.80547L1089 3.47244L1088.1 3.47244C1087.55 3.47244 1087.11 3.91848 1087.11 4.46457C1087.11 5.01065 1087.56 5.45669 1088.1 5.45669L1089 5.45669L1089 6.19036C1089 6.64057 1088.64 7.01157 1088.18 7.01157L1080.27 7.01157C1079.82 7.01157 1079.46 6.64474 1079.46 6.19036L1079.46 5.45669L1079.89 5.45669C1080.44 5.45669 1080.88 5.01065 1080.88 4.46457C1080.88 3.91848 1080.44 3.47244 1079.89 3.47244L1079.46 3.47244L1079.46 2.80547ZM1064.4 2.80547C1064.4 2.35527 1064.76 1.98426 1065.21 1.98426L1073.13 1.98426C1073.57 1.98426 1073.94 2.3511 1073.94 2.80547L1073.94 3.47244L1072.99 3.47244C1072.44 3.47244 1072 3.91848 1072 4.46457C1072 5.01065 1072.45 5.45669 1072.99 5.45669L1073.94 5.45669L1073.94 6.19036C1073.94 6.64057 1073.57 7.01157 1073.13 7.01157L1065.21 7.01157C1064.77 7.01157 1064.4 6.64474 1064.4 6.19036L1064.4 5.45669L1064.84 5.45669C1065.38 5.45669 1065.82 5.01065 1065.82 4.46457C1065.82 3.91848 1065.38 3.47245 1064.84 3.47245L1064.4 3.47245L1064.4 2.80547ZM1049.26 2.80547C1049.26 2.35527 1049.62 1.98426 1050.07 1.98426L1057.99 1.98426C1058.43 1.98426 1058.8 2.3511 1058.8 2.80547L1058.8 3.47245L1057.93 3.47245C1057.39 3.47245 1056.95 3.91848 1056.95 4.46457C1056.95 5.01065 1057.39 5.45669 1057.93 5.45669L1058.8 5.45669L1058.8 6.19036C1058.8 6.64057 1058.44 7.01157 1057.99 7.01157L1050.07 7.01157C1049.63 7.01157 1049.26 6.64474 1049.26 6.19036L1049.26 5.45669L1049.69 5.45669C1050.24 5.45669 1050.68 5.01065 1050.68 4.46457C1050.68 3.91848 1050.23 3.47245 1049.69 3.47245L1049.26 3.47245L1049.26 2.80547ZM1034.15 2.80547C1034.15 2.35527 1034.51 1.98426 1034.96 1.98426L1042.88 1.98426C1043.32 1.98426 1043.69 2.3511 1043.69 2.80547L1043.69 3.47245L1042.79 3.47245C1042.24 3.47245 1041.8 3.91848 1041.8 4.46457C1041.8 5.01065 1042.25 5.45669 1042.79 5.45669L1043.69 5.45669L1043.69 6.19036C1043.69 6.64057 1043.32 7.01157 1042.88 7.01157L1034.96 7.01157C1034.52 7.01157 1034.15 6.64474 1034.15 6.19036L1034.15 5.45669L1034.58 5.45669C1035.13 5.45669 1035.57 5.01065 1035.57 4.46457C1035.57 3.91848 1035.12 3.47245 1034.58 3.47245L1034.15 3.47245L1034.15 2.80547ZM1019.16 2.80547C1019.16 2.35527 1019.53 1.98426 1019.98 1.98426L1027.89 1.98426C1028.34 1.98426 1028.71 2.3511 1028.71 2.80547L1028.71 3.47245L1027.68 3.47245C1027.13 3.47245 1026.7 3.91849 1026.7 4.46457C1026.7 5.01065 1027.14 5.45669 1027.68 5.45669L1028.71 5.45669L1028.71 6.19036C1028.71 6.64057 1028.34 7.01157 1027.89 7.01157L1019.98 7.01157C1019.53 7.01157 1019.16 6.64474 1019.16 6.19036L1019.16 5.45669L1019.6 5.45669C1020.14 5.45669 1020.58 5.01065 1020.58 4.46457C1020.58 3.91849 1020.14 3.47245 1019.6 3.47245L1019.16 3.47245L1019.16 2.80547ZM1004.02 2.80548C1004.02 2.35527 1004.38 1.98426 1004.83 1.98426L1012.75 1.98426C1013.2 1.98426 1013.56 2.3511 1013.56 2.80547L1013.56 3.47245L1012.69 3.47245C1012.15 3.47245 1011.71 3.91849 1011.71 4.46457C1011.71 5.01065 1012.15 5.45669 1012.69 5.45669L1013.56 5.45669L1013.56 6.19036C1013.56 6.64057 1013.2 7.01157 1012.75 7.01157L1004.83 7.01157C1004.39 7.01157 1004.02 6.64474 1004.02 6.19036L1004.02 5.45669L1004.45 5.45669C1005 5.45669 1005.44 5.01065 1005.44 4.46457C1005.44 3.91849 1004.99 3.47245 1004.45 3.47245L1004.02 3.47245L1004.02 2.80548ZM988.911 2.80548C988.911 2.35527 989.275 1.98427 989.726 1.98427L997.641 1.98427C998.088 1.98427 998.456 2.3511 998.456 2.80548L998.456 3.47245L997.554 3.47245C997.008 3.47245 996.57 3.91849 996.57 4.46457C996.57 5.01065 997.013 5.45669 997.554 5.45669L998.456 5.45669L998.456 6.19036C998.456 6.64057 998.092 7.01157 997.641 7.01157L989.726 7.01157C989.279 7.01157 988.911 6.64474 988.911 6.19036L988.911 5.45669L989.346 5.45669C989.892 5.45669 990.33 5.01066 990.33 4.46457C990.33 3.91849 989.887 3.47245 989.346 3.47245L988.911 3.47245L988.911 2.80548ZM973.16 2.80548C973.16 2.35527 973.524 1.98427 973.975 1.98427L981.89 1.98427C982.336 1.98427 982.704 2.3511 982.704 2.80548L982.704 3.47245L982.444 3.47245C981.898 3.47245 981.46 3.91849 981.46 4.46457C981.46 5.01066 981.902 5.45669 982.444 5.45669L982.704 5.45669L982.704 6.19036C982.704 6.64057 982.34 7.01157 981.89 7.01157L973.975 7.01157C973.528 7.01157 973.16 6.64474 973.16 6.19036L973.16 5.45669L973.594 5.45669C974.14 5.45669 974.578 5.01066 974.578 4.46457C974.578 3.91849 974.136 3.47245 973.594 3.47245L973.16 3.47245L973.16 2.80548ZM958.016 2.80548C958.016 2.35527 958.38 1.98427 958.831 1.98427L966.746 1.98427C967.193 1.98427 967.561 2.3511 967.561 2.80548L967.561 3.47245L966.692 3.47245C966.146 3.47245 965.708 3.91849 965.708 4.46457C965.708 5.01066 966.15 5.45669 966.692 5.45669L967.561 5.45669L967.561 6.19036C967.561 6.64057 967.197 7.01158 966.746 7.01158L958.831 7.01158C958.384 7.01158 958.016 6.64474 958.016 6.19037L958.016 5.45669L958.45 5.45669C958.996 5.45669 959.435 5.01066 959.435 4.46457C959.435 3.91849 958.992 3.47245 958.45 3.47245L958.016 3.47245L958.016 2.80548ZM942.91 2.80548C942.91 2.35527 943.274 1.98427 943.724 1.98427L951.64 1.98427C952.086 1.98427 952.454 2.3511 952.454 2.80548L952.454 3.47245L951.553 3.47245C951.007 3.47245 950.568 3.91849 950.568 4.46457C950.568 5.01066 951.011 5.4567 951.553 5.4567L952.454 5.4567L952.454 6.19037C952.454 6.64057 952.09 7.01158 951.64 7.01158L943.724 7.01158C943.278 7.01158 942.91 6.64474 942.91 6.19037L942.91 5.4567L943.344 5.4567C943.89 5.4567 944.328 5.01066 944.328 4.46457C944.328 3.91849 943.886 3.47245 943.344 3.47245L942.91 3.47245L942.91 2.80548ZM927.919 2.80548C927.919 2.35527 928.283 1.98427 928.734 1.98427L936.649 1.98427C937.095 1.98427 937.464 2.3511 937.464 2.80548L937.464 3.47245L936.438 3.47245C935.892 3.47245 935.454 3.91849 935.454 4.46457C935.454 5.01066 935.896 5.4567 936.438 5.4567L937.464 5.4567L937.464 6.19037C937.464 6.64057 937.1 7.01158 936.649 7.01158L928.734 7.01158C928.287 7.01158 927.919 6.64474 927.919 6.19037L927.919 5.4567L928.353 5.4567C928.899 5.4567 929.338 5.01066 929.338 4.46457C929.338 3.91849 928.895 3.47245 928.353 3.47245L927.919 3.47245L927.919 2.80548ZM912.78 2.80548C912.78 2.35527 913.143 1.98427 913.594 1.98427L921.509 1.98427C921.956 1.98427 922.324 2.3511 922.324 2.80548L922.324 3.47245L921.456 3.47245C920.91 3.47245 920.471 3.91849 920.471 4.46457C920.471 5.01066 920.914 5.4567 921.456 5.4567L922.324 5.4567L922.324 6.19037C922.324 6.64057 921.96 7.01158 921.509 7.01158L913.594 7.01158C913.148 7.01158 912.78 6.64474 912.78 6.19037L912.78 5.4567L913.214 5.4567C913.76 5.4567 914.198 5.01066 914.198 4.46457C914.198 3.91849 913.756 3.47245 913.214 3.47245L912.78 3.47245L912.78 2.80548ZM897.669 2.80548C897.669 2.35527 898.033 1.98427 898.484 1.98427L906.399 1.98427C906.845 1.98427 907.213 2.3511 907.213 2.80548L907.213 3.47245L906.312 3.47245C905.766 3.47245 905.328 3.91849 905.328 4.46458C905.328 5.01066 905.77 5.4567 906.312 5.4567L907.213 5.4567L907.213 6.19037C907.213 6.64057 906.849 7.01158 906.399 7.01158L898.484 7.01158C898.037 7.01158 897.669 6.64474 897.669 6.19037L897.669 5.4567L898.103 5.4567C898.649 5.4567 899.087 5.01066 899.087 4.46458C899.087 3.91849 898.645 3.47245 898.103 3.47245L897.669 3.47245L897.669 2.80548ZM881.955 2.80548C881.955 2.35527 882.319 1.98427 882.769 1.98427L890.684 1.98427C891.131 1.98427 891.499 2.35111 891.499 2.80548L891.499 3.47245L891.205 3.47245C890.66 3.47245 890.221 3.91849 890.221 4.46458C890.221 5.01066 890.664 5.4567 891.205 5.4567L891.499 5.4567L891.499 6.19037C891.499 6.64058 891.135 7.01158 890.684 7.01158L882.769 7.01158C882.323 7.01158 881.955 6.64474 881.955 6.19037L881.955 5.4567L882.389 5.4567C882.935 5.4567 883.373 5.01066 883.373 4.46458C883.373 3.91849 882.931 3.47245 882.389 3.47245L881.955 3.47245L881.955 2.80548ZM866.811 2.80548C866.811 2.35527 867.175 1.98427 867.626 1.98427L875.541 1.98427C875.987 1.98427 876.355 2.35111 876.355 2.80548L876.355 3.47245L875.487 3.47245C874.941 3.47245 874.503 3.91849 874.503 4.46458C874.503 5.01066 874.945 5.4567 875.487 5.4567L876.355 5.4567L876.355 6.19037C876.355 6.64058 875.991 7.01158 875.541 7.01158L867.626 7.01158C867.179 7.01158 866.811 6.64474 866.811 6.19037L866.811 5.4567L867.245 5.4567C867.791 5.4567 868.229 5.01066 868.229 4.46458C868.229 3.91849 867.787 3.47245 867.245 3.47245L866.811 3.47245L866.811 2.80548ZM851.705 2.80548C851.705 2.35528 852.068 1.98427 852.519 1.98427L860.434 1.98427C860.881 1.98427 861.249 2.35111 861.249 2.80548L861.249 3.47245L860.347 3.47245C859.802 3.47245 859.363 3.91849 859.363 4.46458C859.363 5.01066 859.806 5.4567 860.347 5.4567L861.249 5.4567L861.249 6.19037C861.249 6.64058 860.885 7.01158 860.434 7.01158L852.519 7.01158C852.073 7.01158 851.705 6.64475 851.705 6.19037L851.705 5.4567L852.139 5.4567C852.685 5.4567 853.123 5.01066 853.123 4.46458C853.123 3.91849 852.68 3.47245 852.139 3.47245L851.705 3.47245L851.705 2.80548ZM836.714 2.80548C836.714 2.35528 837.078 1.98427 837.529 1.98427L845.444 1.98427C845.89 1.98427 846.258 2.35111 846.258 2.80548L846.258 3.47246L845.233 3.47246C844.687 3.47246 844.249 3.91849 844.249 4.46458C844.249 5.01066 844.691 5.4567 845.233 5.4567L846.258 5.4567L846.258 6.19037C846.258 6.64058 845.894 7.01158 845.444 7.01158L837.529 7.01158C837.082 7.01158 836.714 6.64475 836.714 6.19037L836.714 5.4567L837.148 5.4567C837.694 5.4567 838.132 5.01066 838.132 4.46458C838.132 3.91849 837.69 3.47246 837.148 3.47246L836.714 3.47246L836.714 2.80548ZM821.574 2.80548C821.574 2.35528 821.938 1.98427 822.389 1.98427L830.304 1.98427C830.751 1.98427 831.119 2.35111 831.119 2.80548L831.119 3.47246L830.25 3.47246C829.704 3.47246 829.266 3.91849 829.266 4.46458C829.266 5.01066 829.709 5.4567 830.25 5.4567L831.119 5.4567L831.119 6.19037C831.119 6.64058 830.755 7.01158 830.304 7.01158L822.389 7.01158C821.942 7.01158 821.574 6.64475 821.574 6.19037L821.574 5.4567L822.009 5.4567C822.554 5.4567 822.993 5.01066 822.993 4.46458C822.993 3.91849 822.55 3.47246 822.009 3.47246L821.574 3.47246L821.574 2.80548ZM806.464 2.80548C806.464 2.35528 806.828 1.98427 807.278 1.98427L815.194 1.98427C815.64 1.98427 816.008 2.35111 816.008 2.80548L816.008 3.47246L815.107 3.47246C814.561 3.47246 814.122 3.91849 814.122 4.46458C814.122 5.01066 814.565 5.4567 815.107 5.4567L816.008 5.4567L816.008 6.19037C816.008 6.64058 815.644 7.01158 815.194 7.01158L807.278 7.01158C806.832 7.01158 806.464 6.64475 806.464 6.19037L806.464 5.4567L806.898 5.4567C807.444 5.4567 807.882 5.01066 807.882 4.46458C807.882 3.9185 807.44 3.47246 806.898 3.47246L806.464 3.47246L806.464 2.80548ZM790.712 2.80549C790.712 2.35528 791.076 1.98427 791.527 1.98427L799.442 1.98427C799.889 1.98427 800.257 2.35111 800.257 2.80548L800.257 3.47246L799.996 3.47246C799.45 3.47246 799.012 3.9185 799.012 4.46458C799.012 5.01066 799.454 5.4567 799.996 5.4567L800.257 5.4567L800.257 6.19037C800.257 6.64058 799.893 7.01158 799.442 7.01158L791.527 7.01158C791.08 7.01158 790.712 6.64475 790.712 6.19037L790.712 5.4567L791.146 5.4567C791.692 5.4567 792.131 5.01066 792.131 4.46458C792.131 3.9185 791.688 3.47246 791.146 3.47246L790.712 3.47246L790.712 2.80549ZM775.573 2.80549C775.573 2.35528 775.937 1.98428 776.387 1.98428L784.302 1.98427C784.749 1.98427 785.117 2.35111 785.117 2.80549L785.117 3.47246L784.249 3.47246C783.703 3.47246 783.264 3.9185 783.264 4.46458C783.264 5.01066 783.707 5.4567 784.249 5.4567L785.117 5.4567L785.117 6.19037C785.117 6.64058 784.753 7.01158 784.302 7.01158L776.387 7.01158C775.937 7.01158 775.573 6.64475 775.573 6.19037L775.573 5.4567L776.007 5.4567C776.553 5.4567 776.991 5.01066 776.991 4.46458C776.991 3.9185 776.549 3.47246 776.007 3.47246L775.573 3.47246L775.573 2.80549ZM760.462 2.80549C760.462 2.35528 760.826 1.98428 761.277 1.98428L769.192 1.98428C769.638 1.98428 770.007 2.35111 770.007 2.80549L770.007 3.47246L769.105 3.47246C768.559 3.47246 768.121 3.9185 768.121 4.46458C768.121 5.01067 768.563 5.4567 769.105 5.4567L770.007 5.4567L770.007 6.19037C770.007 6.64058 769.643 7.01158 769.192 7.01158L761.277 7.01158C760.83 7.01158 760.462 6.64475 760.462 6.19037L760.462 5.4567L760.896 5.4567C761.442 5.4567 761.881 5.01067 761.881 4.46458C761.881 3.9185 761.438 3.47246 760.896 3.47246L760.462 3.47246L760.462 2.80549ZM745.476 2.80549C745.476 2.35528 745.84 1.98428 746.29 1.98428L754.205 1.98428C754.652 1.98428 755.02 2.35111 755.02 2.80549L755.02 3.47246L753.999 3.47246C753.453 3.47246 753.014 3.9185 753.014 4.46458C753.014 5.01067 753.457 5.4567 753.999 5.4567L755.02 5.4567L755.02 6.19037C755.02 6.64058 754.656 7.01158 754.205 7.01158L746.29 7.01159C745.844 7.01159 745.476 6.64475 745.476 6.19038L745.476 5.4567L745.91 5.4567C746.456 5.4567 746.894 5.01067 746.894 4.46458C746.894 3.9185 746.452 3.47246 745.91 3.47246L745.476 3.47246L745.476 2.80549ZM730.332 2.80549C730.332 2.35528 730.696 1.98428 731.147 1.98428L739.062 1.98428C739.508 1.98428 739.876 2.35111 739.876 2.80549L739.876 3.47246L739.008 3.47246C738.462 3.47246 738.024 3.9185 738.024 4.46458C738.024 5.01067 738.466 5.4567 739.008 5.4567L739.876 5.4567L739.876 6.19038C739.876 6.64058 739.512 7.01159 739.062 7.01159L731.147 7.01159C730.696 7.01159 730.332 6.64475 730.332 6.19038L730.332 5.45671L730.766 5.45671C731.312 5.45671 731.75 5.01067 731.75 4.46458C731.75 3.9185 731.308 3.47246 730.766 3.47246L730.332 3.47246L730.332 2.80549ZM724.766 6.19454C724.766 6.64475 724.402 7.01575 723.951 7.01575L716.036 7.01576C715.589 7.01576 715.221 6.64892 715.221 6.19454L715.221 2.80549C715.221 2.35528 715.585 1.98428 716.036 1.98428L723.951 1.98428C724.398 1.98428 724.766 2.35111 724.766 2.80549L724.766 3.47246L723.864 3.47246C723.318 3.47246 722.88 3.9185 722.88 4.46458C722.88 5.01067 723.323 5.45671 723.864 5.45671L724.766 5.45671L724.766 6.19038L724.766 6.19454Z" fill="#F06F2A"/>
</g>
</svg>
