<svg width="60" height="60" viewBox="0 0 60 60" fill="none" xmlns="http://www.w3.org/2000/svg">
<g clip-path="url(#clip0_22_684)">
<path d="M5.85938 0H54.1406C57.3766 0 60 2.62336 60 5.85938V54.1406C60 57.3766 57.3766 60 54.1406 60H5.85938C2.62336 60 0 57.3766 0 54.1406V5.85938C0 2.62336 2.62336 0 5.85938 0Z" fill="#3178C6"/>
<path d="M5.85938 0H54.1406C57.3766 0 60 2.62336 60 5.85938V54.1406C60 57.3766 57.3766 60 54.1406 60H5.85938C2.62336 60 0 57.3766 0 54.1406V5.85938C0 2.62336 2.62336 0 5.85938 0Z" fill="#3178C6"/>
<path fill-rule="evenodd" clip-rule="evenodd" d="M37.1413 47.745V53.6115C38.095 54.1004 39.2229 54.467 40.5251 54.7114C41.8273 54.9559 43.1996 55.0781 44.6425 55.0781C47.1291 55.0781 49.8512 54.7225 51.9786 53.3456C54.0955 51.9756 55.0781 49.6964 55.0781 47.2317C55.0781 45.3993 54.5096 43.6359 53.2257 42.3004C51.3005 40.2975 48.595 39.4853 46.1646 38.2945C44.9471 37.698 43.2669 36.772 43.2669 35.2054C43.2669 34.8021 43.3709 34.4386 43.5788 34.1147C44.4145 32.8124 46.2709 32.5472 47.687 32.5472C49.2945 32.5472 50.9904 32.9071 52.483 33.5738C53.0026 33.806 53.4825 34.0748 53.9227 34.3805V28.8989C53.0302 28.5567 52.055 28.3031 50.9974 28.1381C49.9398 27.9731 48.7262 27.8906 47.3569 27.8906C45.9629 27.8906 44.6425 28.0404 43.3954 28.3398C42.1482 28.6392 41.0509 29.1067 40.1032 29.7422C39.1556 30.3778 38.4068 31.1875 37.8566 32.1714C37.3064 33.1552 37.0312 34.3315 37.0312 35.7004C37.0312 37.4481 37.5356 38.9392 38.5444 40.1736C39.553 41.408 41.0844 42.4529 43.1386 43.3085C44.5205 43.8736 45.9573 44.4313 47.2009 45.2701C48.0628 45.8514 48.8423 46.662 48.8423 47.7633C48.8423 48.5626 48.3905 49.2403 47.7328 49.6608C46.7598 50.2828 45.5137 50.4216 44.3856 50.4216C43.114 50.4216 41.8547 50.1986 40.6075 49.7524C39.3605 49.3064 38.205 48.6373 37.1413 47.745ZM27.2789 33.2909H34.8047V28.4766H13.8281V33.2909H21.3171V54.7266H27.2789V33.2909Z" fill="white"/>
</g>
<defs>
<clipPath id="clip0_22_684">
<rect width="60" height="60" fill="white"/>
</clipPath>
</defs>
</svg>
