<svg width="24" height="25" viewBox="0 0 24 25" fill="none" xmlns="http://www.w3.org/2000/svg">
<path d="M12.003 0.561768H11.997C5.38052 0.561768 1.57454e-05 5.94377 1.57454e-05 12.5618C-0.0040929 15.0893 0.795989 17.5526 2.28452 19.5953L0.789016 24.0533L5.40152 22.5788C7.35807 23.8768 9.65503 24.5668 12.003 24.5618C18.6195 24.5618 24 19.1783 24 12.5618C24 5.94527 18.6195 0.561768 12.003 0.561768ZM18.9855 17.5073C18.696 18.3248 17.547 19.0028 16.6305 19.2008C16.0035 19.3343 15.1845 19.4408 12.4275 18.2978C8.90102 16.8368 6.63002 13.2533 6.45302 13.0208C6.28352 12.7883 5.02802 11.1233 5.02802 9.40127C5.02802 7.67927 5.90252 6.84077 6.25502 6.48077C6.54452 6.18527 7.02302 6.05027 7.48202 6.05027C7.63052 6.05027 7.76402 6.05777 7.88402 6.06377C8.23652 6.07877 8.41352 6.09977 8.64602 6.65627C8.93552 7.35377 9.64052 9.07577 9.72452 9.25277C9.81002 9.42977 9.89552 9.66977 9.77552 9.90227C9.66302 10.1423 9.56402 10.2488 9.38702 10.4528C9.21002 10.6568 9.04202 10.8128 8.86502 11.0318C8.70302 11.2223 8.52002 11.4263 8.72402 11.7788C8.92802 12.1238 9.63302 13.2743 10.671 14.1983C12.0105 15.3908 13.0965 15.7718 13.485 15.9338C13.7745 16.0538 14.1195 16.0253 14.331 15.8003C14.5995 15.5108 14.931 15.0308 15.2685 14.5583C15.5085 14.2193 15.8115 14.1773 16.1295 14.2973C16.4535 14.4098 18.168 15.2573 18.5205 15.4328C18.873 15.6098 19.1055 15.6938 19.191 15.8423C19.275 15.9908 19.275 16.6883 18.9855 17.5073Z" fill="#1CA497"/>
</svg>
